<?xml version="1.0" encoding="utf-8"?>
<!-- Generator: Adobe Illustrator 28.1.0, SVG Export Plug-In . SVG Version: 6.00 Build 0)  -->
<svg version="1.1" id="Ebene_1" xmlns="http://www.w3.org/2000/svg" xmlns:xlink="http://www.w3.org/1999/xlink" x="0px" y="0px"
	 viewBox="0 0 1006.8 581.9" style="enable-background:new 0 0 1006.8 581.9;" xml:space="preserve">
<style type="text/css">
	.st0{fill:#FFFFFF;stroke:#1D1E1C;stroke-miterlimit:10;}
	.st1{fill:url(#SVGID_1_);stroke:#1D1E1C;stroke-miterlimit:10;}
	.st2{fill:url(#SVGID_00000145754594706984320250000012072058970592878469_);stroke:#1D1E1C;stroke-miterlimit:10;}
	.st3{fill:none;stroke:#B5812B;stroke-miterlimit:10;}
	.st4{fill:none;stroke:#1B394C;stroke-miterlimit:10;}
	.st5{fill:none;stroke:#376EA1;stroke-miterlimit:10;}
	.st6{fill:none;stroke:#1D1E1C;stroke-miterlimit:10;}
	.st7{fill:none;stroke:#76603C;stroke-miterlimit:10;}
	.st8{fill:none;stroke:#F4980D;stroke-miterlimit:10;}
	.st9{fill:#DADADA;stroke:#1D1E1C;stroke-miterlimit:10;}
	.st10{fill:#FFFFFF;stroke:#1D1E1C;stroke-width:0.75;stroke-miterlimit:10;}
	.st11{fill:none;stroke:#1D1E1C;stroke-width:0.75;stroke-miterlimit:10;}
	.st12{fill:url(#SVGID_00000167398639855074483450000010587509484436768390_);stroke:#1D1E1C;stroke-miterlimit:10;}
	.st13{fill:#FDEA14;stroke:#1D1E1C;stroke-miterlimit:10;}
	.st14{fill:none;stroke:#2EA8E0;stroke-miterlimit:10;}
	.st15{fill:#B5812B;}
	.st16{fill:none;stroke:#1D1E1C;stroke-miterlimit:10;stroke-dasharray:15,2,13,6,13,7;}
	.st17{fill:none;stroke:#9ED0F2;stroke-miterlimit:10;}
	.st18{fill:url(#SVGID_00000134928170395528836230000009177461535320107660_);stroke:#1D1E1C;stroke-miterlimit:10;}
	.st19{fill:url(#SVGID_00000112601416487583266200000014301878771424286883_);stroke:#1D1E1C;stroke-miterlimit:10;}
	.st20{fill:url(#SVGID_00000173132976144926988470000010913605179801115577_);stroke:#1D1E1C;stroke-miterlimit:10;}
	.st21{fill:#1B394C;}
	.st22{fill:#376EA1;}
	.st23{fill:#9CCEF0;}
	.st24{fill:#76603C;}
	.st25{fill:#F4980D;}
	.st26{enable-background:new    ;}
	.st27{fill:#FFFFFF;}
</style>
<rect x="282.5" y="183.9" class="st0" width="492.9" height="395"/>
<radialGradient id="SVGID_1_" cx="573.3101" cy="-76.505" r="43.0516" gradientTransform="matrix(1 0 0 -1 0 409.58)" gradientUnits="userSpaceOnUse">
	<stop  offset="0" style="stop-color:#FFFFFF"/>
	<stop  offset="1" style="stop-color:#DADADA"/>
</radialGradient>
<rect x="542.6" y="433.5" class="st1" width="61.3" height="105.2"/>
<rect x="426.5" y="183.6" class="st0" width="324.9" height="177.7"/>
<rect x="309.4" y="183.6" class="st0" width="103.2" height="179.5"/>
<radialGradient id="SVGID_00000034091070134534922520000005025745622933181589_" cx="529.52" cy="315.565" r="197.6485" gradientTransform="matrix(1 0 0 -1 0 409.58)" gradientUnits="userSpaceOnUse">
	<stop  offset="0" style="stop-color:#FFFFFF"/>
	<stop  offset="1" style="stop-color:#DADADA"/>
</radialGradient>
<polygon style="fill:url(#SVGID_00000034091070134534922520000005025745622933181589_);stroke:#1D1E1C;stroke-miterlimit:10;" points="
	794,184.4 265,184.4 292.3,3.6 759.3,3.6 "/>
<line class="st3" x1="594.6" y1="479.6" x2="915.5" y2="477.8"/>
<line class="st4" x1="204.2" y1="31.1" x2="433.2" y2="36.3"/>
<line class="st5" x1="198.4" y1="328" x2="315" y2="325.6"/>
<g>
	<g>
		<line class="st6" x1="817.9" y1="366.1" x2="935" y2="518.6"/>
		<line class="st6" x1="864" y1="375" x2="966.9" y2="523.9"/>
		<line class="st6" x1="899.5" y1="371.5" x2="988.1" y2="486.7"/>
		<line class="st6" x1="931.4" y1="373.2" x2="991.7" y2="449.5"/>
		<line class="st6" x1="965.1" y1="389.2" x2="1000.5" y2="428.2"/>
		<line class="st6" x1="787.8" y1="369.7" x2="876.5" y2="502.7"/>
		<line class="st6" x1="787.8" y1="412.2" x2="862.3" y2="539.9"/>
		<line class="st6" x1="799.5" y1="480.2" x2="832.1" y2="547"/>
	</g>
	<g>
		<line class="st6" x1="786" y1="366.1" x2="1002.3" y2="366.1"/>
		<line class="st6" x1="2.3" y1="361.8" x2="282.5" y2="364.4"/>
		<g>
			<line class="st6" x1="252.7" y1="365.9" x2="273.4" y2="407.7"/>
			<line class="st6" x1="218.7" y1="366.9" x2="267.6" y2="447.4"/>
			<line class="st6" x1="190.9" y1="365.9" x2="243.2" y2="463.7"/>
			<line class="st6" x1="150.8" y1="366.6" x2="223.8" y2="498.3"/>
			<line class="st6" x1="108.4" y1="362.8" x2="206.9" y2="529.2"/>
			<line class="st6" x1="59.5" y1="364.5" x2="124.3" y2="489.5"/>
			<line class="st6" x1="23.2" y1="386.8" x2="122" y2="543.8"/>
			<line class="st6" x1="6.9" y1="454.5" x2="79.5" y2="563.1"/>
		</g>
	</g>
</g>
<line class="st7" x1="535.2" y1="196.3" x2="861.3" y2="196.8"/>
<line class="st8" x1="683.7" y1="262.7" x2="935.2" y2="263.9"/>
<path class="st9" d="M672.6,314.7v-86.9h7.1v-3.6h-7.1V219h-5.3v5.3h-7.1V219h-5.3v5.3h-7.1V219h-5.3v5.3h-7.1V219H630v5.3h-7.1V219
	h-5.3v5.3h-7.1v3.6h7.1l0,110.4l-13.5,0.4l0.1,5.6l13.4-0.4v5.5h5.3V344h7.1v5.3h5.3V344h7.1v5.3h5.3V344h7.1v5.3h5.3V344h7.1v5.3
	h5.3v-5.9l26.5,0.1l0.7,69.8v0.4c0,1.6-1.3,3-3,3H503.9v-12.1h-75.5v133.9h75.5v-12.9h212v-211H672.6z M630,337.8h-7.1v-17.2h7.1
	V337.8z M630,314.7h-7.1v-86.9h7.1V314.7z M642.4,337.8h-7.1v-17.2h7.1V337.8z M642.4,314.7h-7.1v-86.9h7.1V314.7z M654.8,337.8
	h-7.1v-17.2h7.1V337.8z M654.8,314.7h-7.1v-86.9h7.1V314.7z M667.2,337.8h-7.1v-17.2h7.1V337.8z M667.2,314.7h-7.1v-86.9h7.1V314.7z
	 M710,520.4H503.9v-97.6h195.8c1.4,0,2.7-0.6,3.7-1.5s1.5-2.2,1.5-3.7c0-0.2,0-0.6,0-0.6v-0.3l0-1.7l-0.6-72.3c-0.1-2.8-2.4-5-5.1-5
	l0,0h-26.6v-17.2H710L710,520.4L710,520.4z"/>
<line class="st7" x1="529" y1="196.6" x2="513.4" y2="212.4"/>
<rect x="312.3" y="389.1" class="st6" width="439.1" height="149.6"/>
<rect x="553.8" y="439.1" class="st0" width="41.1" height="18.6"/>
<rect x="563.5" y="441.9" class="st0" width="20.2" height="15.9"/>
<g>
	<ellipse class="st10" cx="589.3" cy="443.8" rx="2.1" ry="1.4"/>
	<ellipse class="st10" cx="589.5" cy="449" rx="2.2" ry="1.1"/>
	<line class="st11" x1="587.5" y1="453.5" x2="591.6" y2="453.5"/>
</g>
<ellipse class="st10" cx="558.4" cy="443.6" rx="1.9" ry="1.3"/>
<ellipse class="st10" cx="558.4" cy="448.4" rx="1.9" ry="1.3"/>
<ellipse class="st10" cx="558.4" cy="453.2" rx="1.9" ry="1.3"/>
<line class="st6" x1="579.9" y1="441.9" x2="573.6" y2="452.4"/>
<line class="st6" x1="582.7" y1="442.6" x2="576.8" y2="453.1"/>
<line class="st6" x1="566.9" y1="457.5" x2="572.9" y2="448.2"/>
<line class="st6" x1="572.6" y1="453.9" x2="569.9" y2="457.9"/>
<polygon class="st6" points="604,433.5 604,520.4 542.6,520.4 542.6,487.6 504.1,487.6 504.1,482.3 542.6,482.3 542.6,463.4 
	503.9,463.4 503.9,457 542.6,457 542.6,433.5 "/>
<radialGradient id="SVGID_00000088855121095752094330000005269442928876645253_" cx="466.42" cy="-62.135" r="54.451" gradientTransform="matrix(1 0 0 -1 0 409.58)" gradientUnits="userSpaceOnUse">
	<stop  offset="0" style="stop-color:#FFFFFF"/>
	<stop  offset="1" style="stop-color:#DADADA"/>
</radialGradient>
<rect x="428.4" y="404.8" style="fill:url(#SVGID_00000088855121095752094330000005269442928876645253_);stroke:#1D1E1C;stroke-miterlimit:10;" width="76" height="133.9"/>
<rect x="542.6" y="525.8" class="st6" width="61.3" height="12.9"/>
<rect x="428.5" y="533.3" class="st6" width="75.4" height="4.8"/>
<g>
	<g>
		<line class="st6" x1="499.1" y1="533.3" x2="502.9" y2="538"/>
		<line class="st6" x1="491.3" y1="533.3" x2="495.1" y2="538"/>
		<line class="st6" x1="483.4" y1="533.3" x2="487.2" y2="538"/>
		<line class="st6" x1="475.6" y1="533.3" x2="479.4" y2="538"/>
		<line class="st6" x1="467.7" y1="533.3" x2="471.5" y2="538"/>
		<line class="st6" x1="459.9" y1="533.3" x2="463.7" y2="538"/>
		<line class="st6" x1="452" y1="533.3" x2="455.8" y2="538"/>
		<line class="st6" x1="444.2" y1="533.3" x2="448" y2="538"/>
		<line class="st6" x1="436.3" y1="533.3" x2="440.1" y2="538"/>
		<line class="st6" x1="428.5" y1="533.3" x2="432.3" y2="538"/>
	</g>
</g>
<g>
	<g>
		<line class="st6" x1="596.5" y1="533.9" x2="600.3" y2="538.7"/>
		<line class="st6" x1="590.7" y1="533.9" x2="594.5" y2="538.7"/>
		<line class="st6" x1="584.9" y1="533.9" x2="588.7" y2="538.7"/>
		<line class="st6" x1="579.1" y1="533.9" x2="582.9" y2="538.7"/>
		<line class="st6" x1="573.3" y1="533.9" x2="577.1" y2="538.7"/>
		<line class="st6" x1="567.5" y1="533.9" x2="571.3" y2="538.7"/>
		<line class="st6" x1="561.7" y1="533.9" x2="565.5" y2="538.7"/>
		<line class="st6" x1="555.9" y1="533.9" x2="559.7" y2="538.7"/>
		<line class="st6" x1="550.1" y1="533.9" x2="553.8" y2="538.7"/>
		<line class="st6" x1="544.3" y1="533.9" x2="548" y2="538.7"/>
	</g>
</g>
<g>
	<g>
		<line class="st6" x1="498" y1="404.5" x2="504" y2="412"/>
		<line class="st6" x1="491.1" y1="404.5" x2="497" y2="412"/>
		<line class="st6" x1="484.1" y1="404.5" x2="490" y2="412"/>
		<line class="st6" x1="477.1" y1="404.5" x2="483" y2="412"/>
		<line class="st6" x1="470.2" y1="404.6" x2="476" y2="412"/>
		<line class="st6" x1="463.2" y1="404.6" x2="469" y2="412"/>
		<line class="st6" x1="456.3" y1="404.6" x2="462" y2="412"/>
		<line class="st6" x1="449.3" y1="404.7" x2="455" y2="412"/>
		<line class="st6" x1="442.4" y1="404.7" x2="448" y2="412"/>
		<line class="st6" x1="435.4" y1="404.7" x2="441" y2="412"/>
		<line class="st6" x1="428.5" y1="404.8" x2="434" y2="412"/>
	</g>
</g>
<polygon class="st13" points="667.2,337.4 667.2,337.8 660.2,337.8 660.2,337.6 "/>
<polygon class="st14" points="704.9,415.1 704.9,416.7 704.9,415.1 "/>
<line class="st6" x1="542.6" y1="534.2" x2="604" y2="534.2"/>
<rect x="428.5" y="404.8" class="st6" width="75.4" height="7.3"/>
<line class="st6" x1="503.9" y1="457" x2="548.5" y2="457"/>
<line class="st6" x1="503.3" y1="463.4" x2="548.5" y2="463.4"/>
<line class="st6" x1="510.5" y1="482.2" x2="549.7" y2="482.2"/>
<line class="st6" x1="503.3" y1="487.6" x2="549.7" y2="487.6"/>
<path class="st0" d="M491.7,430v81.6c-5,1.6-12,3.4-20.6,3.9v-7.3h-6.3v7.5c-10.7-0.1-19.5-2.2-25.5-4.1V430
	c4.8-2.4,15-6.7,28.4-6.2C478.7,424.2,487.1,427.6,491.7,430z"/>
<path class="st0" d="M471.1,508.1v13.1c0,2.5-2,4.5-4.5,4.5h-184v-5.3h182.3v-12.2L471.1,508.1L471.1,508.1L471.1,508.1z"/>
<line class="st14" x1="494" y1="223.6" x2="494" y2="223.6"/>
<path class="st0" d="M419.6,77H359c-1.8,0-3.2,1.4-3.2,3.2V476c0,1.7,1.4,3.2,3.2,3.2h87.2c8.7-0.6,8.2-0.6,9.6-0.7
	c3.2-0.9,3-1.5,3.1-2.1c0.1-0.8-2.9-1.2-4.8-1.3c-1.6,0-1.3-0.2-2.9-0.2c-2.5,0-4.8-1.8-5.2-4.2c0-0.2-0.1-0.5-0.1-0.7
	c0-1.5,0.6-2.7,1.2-3.5c0.6-0.8,1.5-1.3,2.5-1.6c1.7-0.5,3.3-1,5-1.5c1-0.2,1.8-0.7,1.9-1.3c0.1-0.7-1-1.7-2.8-1.9
	c-1.6,0-3.2,0-4.8,0.1l-1.2,0l-71.2,0.3c-1.7,0-3.2-0.7-4.3-1.8c-1.1-1.1-1.8-2.6-1.8-4.3V104.7c0-3.6,2.9-6.5,6.5-6.5h42.3v8.8
	h-37.9c-2.1,0-3.9,1.7-3.9,3.9v340.3c0,2.2,1.8,3.9,3.9,3.9h67.6v0.2c1.2,0,2.5-0.1,3.7-0.2c2.6,0.1,5.6,0.7,8.6,2.1
	c0.3,0.2,0.6,0.3,0.9,0.5c2.1,1,3.2,3.2,2.8,5.3c-0.3,1.6-1.6,2.9-3.2,3.5c-2.1,0.5-6.2,1.5-6.2,1.5s-2.8,0.5-2.9,2
	c-0.1,1.4,1.1,1.8,2,2.1c0.4,0.1,0.8,0.1,1,0.1c6.2-0.6,10.7,1.3,10.7,5.3c0,5-3.4,5.5-8.6,6.1l-7.8,0h-97.7c-1.8,0-3.2-1.4-3.2-3.2
	V79.9c0-5,4.1-9.1,9.1-9.1h61.7L419.6,77"/>
<g>
	<path class="st0" d="M671.7,343.6l27.3,0.1l0.7,69.8v0.4c0,1.6-1.3,3-3,3H506.2v6h193.5c1.4,0,2.7-0.6,3.7-1.5s1.5-2.2,1.5-3.7
		c0-0.2,0-0.6,0-0.6v-0.3l0-1.7l-0.6-72.3c-0.1-2.8-2.4-5-5.1-5h-27.4"/>
	<polyline class="st0" points="672.1,320.6 710,320.6 710,520.4 506.2,520.4 506.2,525.8 715.9,525.8 715.9,314.7 672.1,314.7 	"/>
</g>
<g>
	<polygon class="st15" points="410.2,449.5 410.2,445.9 381.8,445.9 381.8,433.5 410.2,433.5 410.2,430 420.8,439.7 	"/>
	<g>
		<polygon class="st15" points="622.9,414 622.9,410.5 571.5,410.5 571.5,398.1 622.9,398.1 622.9,394.5 633.6,404.3 		"/>
		<polygon class="st15" points="582.2,515.1 582.2,511.5 633.6,511.5 633.6,499.1 582.2,499.1 582.2,495.6 571.5,505.3 		"/>
		<polygon class="st15" points="743.5,398.1 739.9,398.1 739.9,346.6 727.5,346.6 727.5,398.1 724,398.1 733.7,408.7 		"/>
		<polygon class="st15" points="403.1,279.3 399.5,279.3 399.5,227.9 387.1,227.9 387.1,279.3 383.6,279.3 393.3,289.9 		"/>
		<polygon class="st15" points="321.5,238.5 325.1,238.5 325.1,289.9 337.5,289.9 337.5,238.5 341,238.5 331.3,227.9 		"/>
		<polygon class="st15" points="436.8,352 440.3,352 440.3,397.9 452.7,397.9 452.7,352 456.3,352 446.5,341.3 		"/>
	</g>
	<polygon class="st15" points="390.7,511.5 390.7,508 420.8,508 420.8,495.6 390.7,495.6 390.7,492 380,501.8 	"/>
</g>
<g>
	<rect x="463.5" y="204" class="st0" width="6.5" height="231.1"/>
	<g>
		<path class="st6" d="M523.1,222.6c-1.3-5.1-7.1-8.9-14.1-8.9s-12.9,3.8-14.1,8.9H523.1z"/>
		<path class="st6" d="M470.3,207.1c15.9-8.1,32.1-8.1,37.3-1.6c1,1.3,2.2,3.5,2.2,7.3c-1,0.3-1.9,0.6-2.9,0.9c0-1.6-0.4-2.9-1-3.8
			c-3.5-5.7-24.6-5.9-32.4-0.1c0,48.5,0.1,97.1,0.1,145.6h64.8c0,1.9,0,3.8,0,5.7"/>
	</g>
	<path class="st11" d="M484.6,287.9c1.5,0,2.9,0.1,4.2,0.4c-0.9-1.6-3-2.8-5.5-2.8c-2.9,0-5.3,1.5-5.8,3.6
		C479.3,288.4,481.8,287.9,484.6,287.9z"/>
	<path class="st6" d="M474,282.3v11.1c2-0.1,3.6-2.5,3.6-5.5S476,282.4,474,282.3z"/>
	<g>
		<line class="st16" x1="526.6" y1="344.9" x2="526.6" y2="350.9"/>
		<g>
			<g>
				<line class="st16" x1="496.1" y1="328" x2="496.1" y2="337"/>
				<line class="st16" x1="508.1" y1="319.7" x2="509" y2="333.4"/>
				<g>
					<line class="st16" x1="494.8" y1="341.3" x2="494.8" y2="348.4"/>
					<line class="st16" x1="512.4" y1="241.4" x2="512.4" y2="250.6"/>
					<line class="st16" x1="518.9" y1="234.1" x2="519.8" y2="244.9"/>
					<line class="st16" x1="522.4" y1="280.3" x2="523.1" y2="289.1"/>
					<line class="st16" x1="516.4" y1="340.1" x2="517.8" y2="350.8"/>
					<line class="st16" x1="509" y1="342.4" x2="509.9" y2="351.2"/>
					<g>
						<line class="st16" x1="496.1" y1="266.1" x2="496.1" y2="281"/>
						<line class="st16" x1="494.8" y1="287.9" x2="494.8" y2="303.9"/>
						<line class="st16" x1="494.8" y1="311" x2="494.8" y2="319.6"/>
						<line class="st16" x1="501.3" y1="270.2" x2="502.1" y2="281"/>
						<line class="st16" x1="507.1" y1="266.1" x2="507.1" y2="276.4"/>
						<line class="st16" x1="512.4" y1="262.9" x2="512.4" y2="273.5"/>
						<line class="st16" x1="521.7" y1="264.8" x2="523.1" y2="274.3"/>
						<line class="st16" x1="513.5" y1="283.9" x2="515.2" y2="298.4"/>
						<line class="st16" x1="523.1" y1="295.9" x2="524.9" y2="307.8"/>
						<line class="st16" x1="514.3" y1="306.9" x2="515.5" y2="317.5"/>
						<line class="st16" x1="507.1" y1="300.9" x2="509" y2="315.3"/>
						<line class="st16" x1="502.5" y1="312.2" x2="503.6" y2="327.2"/>
						<line class="st16" x1="516.7" y1="326.6" x2="516.1" y2="337.8"/>
						<line class="st16" x1="524" y1="313" x2="524.9" y2="324.8"/>
						<line class="st16" x1="526" y1="332.2" x2="527.1" y2="341.3"/>
						<line class="st16" x1="503" y1="331" x2="504.4" y2="341.3"/>
						<line class="st16" x1="507.1" y1="283.1" x2="507.1" y2="294.5"/>
						<line class="st16" x1="503" y1="291.1" x2="503" y2="301.8"/>
						<g>
							<line class="st16" x1="497.6" y1="227.9" x2="496.8" y2="238.6"/>
							<line class="st16" x1="496.1" y1="243.6" x2="496.1" y2="257.5"/>
							<line class="st16" x1="501.3" y1="227.9" x2="501.3" y2="240.3"/>
							<line class="st16" x1="501.3" y1="250.6" x2="501.3" y2="262.9"/>
							<line class="st16" x1="506.2" y1="226.6" x2="506.2" y2="239.5"/>
							<line class="st16" x1="506.9" y1="245.9" x2="507.3" y2="254.7"/>
							<line class="st16" x1="512.4" y1="229.1" x2="512.4" y2="236.5"/>
							<line class="st16" x1="520.2" y1="251.3" x2="521.7" y2="260.1"/>
							<line class="st16" x1="518.2" y1="224.8" x2="519.4" y2="231.7"/>
						</g>
					</g>
				</g>
			</g>
			<line class="st16" x1="527.9" y1="353.1" x2="530.9" y2="347.2"/>
			<line class="st16" x1="531.4" y1="351.7" x2="535.9" y2="347.9"/>
			<line class="st16" x1="533.6" y1="353.4" x2="539.7" y2="352.6"/>
			<line class="st16" x1="521.9" y1="348.4" x2="524.5" y2="351.2"/>
			<line class="st16" x1="518.2" y1="353" x2="521.3" y2="352.4"/>
			<line class="st16" x1="515" y1="348.3" x2="512.2" y2="351.1"/>
			<line class="st16" x1="513" y1="353" x2="515.8" y2="353"/>
			<line class="st16" x1="503.4" y1="348.2" x2="503.7" y2="354.1"/>
			<line class="st16" x1="501.7" y1="349.8" x2="498.4" y2="351.1"/>
			<line class="st16" x1="492" y1="349.8" x2="494.4" y2="351.1"/>
			<line class="st16" x1="488.6" y1="352" x2="492.1" y2="353"/>
			<line class="st16" x1="498.9" y1="353.5" x2="501.9" y2="353"/>
			<line class="st16" x1="496.1" y1="352" x2="496.1" y2="354.8"/>
			<line class="st16" x1="506.2" y1="349.8" x2="508.5" y2="353"/>
		</g>
	</g>
</g>
<line class="st17" x1="436.8" y1="427" x2="212.2" y2="423.8"/>
<g>
	<g>
		<path class="st0" d="M649.5,155.9c-11.3-0.8-23.8-1.2-37.2-0.7c-10.5,0.4-20.3,1.2-29.4,2.3c1-45.9,1.9-91.7,2.8-137.5l60.3-1.3
			L649.5,155.9z"/>
		<g>
			<line class="st6" x1="592.8" y1="20.4" x2="596.3" y2="155.9"/>
			<line class="st6" x1="607" y1="19.9" x2="608.8" y2="155.6"/>
			<line class="st6" x1="619.4" y1="19.2" x2="619.4" y2="155.2"/>
			<line class="st6" x1="635.3" y1="19.2" x2="635.3" y2="155.4"/>
		</g>
	</g>
	<g>
		<line class="st6" x1="646" y1="20.4" x2="645.7" y2="16.3"/>
		<line class="st6" x1="643.1" y1="18.7" x2="649.5" y2="18.7"/>
	</g>
</g>
<polygon class="st0" points="486.4,155.2 418,154.2 420.8,20.4 483.4,18.7 "/>
<polygon class="st0" points="568,154 502.4,153.4 502.4,20.4 566.2,18.7 "/>
<radialGradient id="SVGID_00000075863809733010523540000015876302304541012365_" cx="493.04" cy="381.16" r="6.8602" gradientTransform="matrix(1 0 0 -1 0 409.58)" gradientUnits="userSpaceOnUse">
	<stop  offset="0" style="stop-color:#FFFFFF"/>
	<stop  offset="1" style="stop-color:#DADADA"/>
</radialGradient>
<rect x="483.7" y="25.8" style="fill:url(#SVGID_00000075863809733010523540000015876302304541012365_);stroke:#1D1E1C;stroke-miterlimit:10;" width="18.7" height="5.3"/>
<line class="st6" x1="482" y1="18.7" x2="490.2" y2="18.7"/>
<line class="st6" x1="420.7" y1="24.6" x2="420.8" y2="17.8"/>
<line class="st6" x1="480.2" y1="155.2" x2="491" y2="155.2"/>
<line class="st6" x1="563.6" y1="154" x2="570.7" y2="154"/>
<line class="st6" x1="474" y1="18.7" x2="474" y2="155.2"/>
<line class="st6" x1="461.6" y1="18.7" x2="461.6" y2="154.8"/>
<line class="st6" x1="445.6" y1="20.4" x2="447.4" y2="154.9"/>
<line class="st6" x1="433.2" y1="20.4" x2="433.2" y2="154.6"/>
<g>
	<line class="st6" x1="553.8" y1="18.7" x2="553.8" y2="154.3"/>
	<line class="st6" x1="537.8" y1="18.7" x2="539.6" y2="154.2"/>
	<line class="st6" x1="525.4" y1="20.4" x2="529" y2="154"/>
	<line class="st6" x1="513" y1="20.4" x2="514.8" y2="153.4"/>
</g>
<radialGradient id="SVGID_00000029726482582604922010000011045920951213302175_" cx="575.58" cy="310.25" r="6.6776" gradientTransform="matrix(1 0 0 -1 0 409.58)" gradientUnits="userSpaceOnUse">
	<stop  offset="0" style="stop-color:#FFFFFF"/>
	<stop  offset="1" style="stop-color:#DADADA"/>
</radialGradient>
<rect x="567.2" y="94.9" style="fill:url(#SVGID_00000029726482582604922010000011045920951213302175_);stroke:#1D1E1C;stroke-miterlimit:10;" width="16.7" height="8.9"/>
<radialGradient id="SVGID_00000176739216635241897210000014159388218897778056_" cx="493.885" cy="308.47" r="6.7683" gradientTransform="matrix(1 0 0 -1 0 409.58)" gradientUnits="userSpaceOnUse">
	<stop  offset="0" style="stop-color:#FFFFFF"/>
	<stop  offset="1" style="stop-color:#DADADA"/>
</radialGradient>
<rect x="485.4" y="96.7" style="fill:url(#SVGID_00000176739216635241897210000014159388218897778056_);stroke:#1D1E1C;stroke-miterlimit:10;" width="17" height="8.9"/>
<line class="st6" x1="566.2" y1="20.4" x2="566.2" y2="15.1"/>
<line class="st6" x1="483.5" y1="23" x2="483.3" y2="16.4"/>
<line class="st6" x1="502.4" y1="28.9" x2="502.4" y2="18"/>
<path class="st21" d="M245.3,39.2H45.1c-2.5,0-4.6-2-4.6-4.4V4.4c0-2.4,2-4.4,4.6-4.4h200.1c2.5,0,4.6,2,4.6,4.4v30.4
	C249.8,37.2,247.8,39.2,245.3,39.2z"/>
<path class="st22" d="M228.4,336.3H98.9c-2.4,0-4.4-2-4.4-4.4v-30.4c0-2.4,2-4.4,4.4-4.4h129.4c2.4,0,4.4,2,4.4,4.4v30.4
	C232.8,334.4,230.8,336.3,228.4,336.3z"/>
<path class="st23" d="M211.2,428.4H81.8c-2.4,0-4.4-2-4.4-4.4v-30.4c0-2.4,2-4.4,4.4-4.4h129.4c2.4,0,4.4,2,4.4,4.4V424
	C215.6,426.4,213.6,428.4,211.2,428.4z"/>
<path class="st24" d="M969.6,200.1H840.2c-2.4,0-4.4-2-4.4-4.4v-30.4c0-2.4,2-4.4,4.4-4.4h129.4c2.4,0,4.4,2,4.4,4.4v30.4
	C974,198.1,972,200.1,969.6,200.1z"/>
<path class="st25" d="M947.7,267.8H793.2c-2.4,0-4.4-2-4.4-4.4v-30.4c0-2.4,2-4.4,4.4-4.4h154.6c2.4,0,4.4,2,4.4,4.4v30.4
	C952.1,265.8,950.2,267.8,947.7,267.8z"/>
<path class="st15" d="M955.4,484.2H800.8c-2.4,0-4.4-2-4.4-4.4v-30.4c0-2.4,2-4.4,4.4-4.4h154.6c2.4,0,4.4,2,4.4,4.4v30.4
	C959.8,482.2,957.8,484.2,955.4,484.2z"/>
<g class="st26">
	<path class="st27" d="M58.8,13.5c-0.1,0.2-0.2,0.3-0.3,0.4C58.3,14,58.2,14,58,14c-0.2,0-0.3-0.1-0.5-0.2s-0.4-0.2-0.6-0.3
		c-0.2-0.1-0.5-0.2-0.8-0.3c-0.3-0.1-0.7-0.2-1-0.2c-0.7,0-1.2,0.1-1.5,0.4S53,14.1,53,14.6c0,0.3,0.1,0.6,0.3,0.8
		c0.2,0.2,0.5,0.4,0.8,0.5c0.3,0.1,0.7,0.3,1.1,0.4c0.4,0.1,0.8,0.3,1.3,0.4s0.9,0.3,1.3,0.5c0.4,0.2,0.8,0.5,1.1,0.8
		s0.6,0.7,0.8,1.2c0.2,0.5,0.3,1,0.3,1.7c0,0.7-0.1,1.4-0.4,2c-0.2,0.6-0.6,1.2-1.1,1.6s-1.1,0.8-1.7,1.1S55.2,26,54.4,26
		c-0.5,0-1,0-1.5-0.1c-0.5-0.1-1-0.2-1.5-0.4c-0.5-0.2-0.9-0.4-1.3-0.6c-0.4-0.2-0.8-0.5-1.1-0.8l1.1-1.7c0.1-0.1,0.2-0.2,0.3-0.3
		c0.1-0.1,0.3-0.1,0.5-0.1c0.2,0,0.4,0.1,0.6,0.2c0.2,0.1,0.5,0.3,0.7,0.4c0.3,0.2,0.6,0.3,0.9,0.4c0.4,0.1,0.8,0.2,1.3,0.2
		c0.7,0,1.2-0.1,1.5-0.4c0.4-0.3,0.5-0.7,0.5-1.4c0-0.4-0.1-0.7-0.3-0.9c-0.2-0.2-0.5-0.4-0.8-0.6c-0.3-0.1-0.7-0.3-1.1-0.4
		c-0.4-0.1-0.8-0.2-1.3-0.4c-0.4-0.1-0.9-0.3-1.3-0.5c-0.4-0.2-0.8-0.5-1.1-0.8c-0.3-0.3-0.6-0.7-0.8-1.2c-0.2-0.5-0.3-1.1-0.3-1.8
		c0-0.6,0.1-1.1,0.4-1.7c0.2-0.6,0.6-1,1-1.5c0.5-0.4,1-0.8,1.7-1s1.4-0.4,2.3-0.4c0.5,0,0.9,0,1.4,0.1s0.9,0.2,1.3,0.3
		c0.4,0.1,0.8,0.3,1.1,0.5s0.7,0.4,0.9,0.7L58.8,13.5z"/>
	<path class="st27" d="M67,14.7c0.8,0,1.6,0.1,2.3,0.4c0.7,0.3,1.3,0.6,1.8,1.1c0.5,0.5,0.9,1.1,1.1,1.8c0.3,0.7,0.4,1.5,0.4,2.4
		c0,0.9-0.1,1.7-0.4,2.4c-0.3,0.7-0.7,1.3-1.1,1.8c-0.5,0.5-1.1,0.9-1.8,1.1S67.9,26,67,26c-0.8,0-1.6-0.1-2.3-0.4S63.5,25,63,24.5
		c-0.5-0.5-0.9-1.1-1.2-1.8c-0.3-0.7-0.4-1.5-0.4-2.4c0-0.9,0.1-1.7,0.4-2.4c0.3-0.7,0.7-1.3,1.2-1.8s1.1-0.9,1.8-1.1
		C65.4,14.8,66.2,14.7,67,14.7z M67,23.6c0.8,0,1.3-0.3,1.7-0.8c0.4-0.5,0.5-1.3,0.5-2.4s-0.2-1.9-0.5-2.4c-0.4-0.5-0.9-0.8-1.7-0.8
		c-0.8,0-1.4,0.3-1.7,0.8c-0.4,0.5-0.5,1.3-0.5,2.4s0.2,1.9,0.5,2.4C65.7,23.3,66.3,23.6,67,23.6z"/>
	<path class="st27" d="M77.9,10v15.9h-3.3V10H77.9z"/>
	<path class="st27" d="M80.2,16.4c0.7-0.6,1.4-1,2.2-1.3s1.7-0.4,2.6-0.4c0.7,0,1.3,0.1,1.8,0.3c0.5,0.2,1,0.5,1.4,0.9
		c0.4,0.4,0.7,0.8,0.9,1.4c0.2,0.5,0.3,1.1,0.3,1.7v6.9h-1.5c-0.3,0-0.5,0-0.7-0.1s-0.3-0.3-0.4-0.5l-0.2-0.6
		c-0.3,0.2-0.5,0.4-0.8,0.6c-0.3,0.2-0.5,0.3-0.8,0.5c-0.3,0.1-0.6,0.2-0.9,0.3C83.8,26,83.4,26,83,26c-0.5,0-1-0.1-1.4-0.2
		c-0.4-0.1-0.8-0.3-1-0.6c-0.3-0.3-0.5-0.6-0.7-1c-0.2-0.4-0.2-0.8-0.2-1.3c0-0.4,0.1-0.8,0.3-1.2c0.2-0.4,0.5-0.8,1-1.1
		s1.1-0.6,2-0.8c0.8-0.2,1.9-0.4,3.1-0.4V19c0-0.6-0.1-1.1-0.4-1.4c-0.3-0.3-0.6-0.4-1.1-0.4c-0.4,0-0.7,0-1,0.1
		c-0.2,0.1-0.5,0.2-0.7,0.3c-0.2,0.1-0.4,0.2-0.6,0.3C82.3,17.9,82,18,81.8,18c-0.2,0-0.4-0.1-0.6-0.2c-0.2-0.1-0.3-0.2-0.4-0.4
		L80.2,16.4z M86.2,21.4c-0.7,0-1.2,0.1-1.6,0.2c-0.4,0.1-0.8,0.2-1,0.3c-0.2,0.1-0.4,0.3-0.5,0.4s-0.1,0.3-0.1,0.5
		c0,0.4,0.1,0.6,0.3,0.8c0.2,0.2,0.5,0.2,0.9,0.2c0.4,0,0.8-0.1,1.1-0.2c0.3-0.1,0.6-0.4,1-0.7V21.4z"/>
	<path class="st27" d="M94.9,16.5c0.3-0.6,0.7-1.1,1.2-1.4c0.4-0.3,1-0.5,1.5-0.5c0.5,0,0.9,0.1,1.2,0.4l-0.2,2.4
		c0,0.2-0.1,0.3-0.2,0.3c-0.1,0.1-0.2,0.1-0.3,0.1c-0.1,0-0.1,0-0.2,0s-0.2,0-0.3,0c-0.1,0-0.2,0-0.3,0c-0.1,0-0.2,0-0.3,0
		c-0.5,0-0.9,0.1-1.2,0.4c-0.3,0.3-0.5,0.6-0.7,1.1v6.7h-3.3v-11h2c0.2,0,0.3,0,0.4,0c0.1,0,0.2,0.1,0.3,0.1
		c0.1,0.1,0.1,0.1,0.2,0.2c0,0.1,0.1,0.2,0.1,0.4L94.9,16.5z"/>
	<path class="st27" d="M103.5,10v8.9h0.5c0.2,0,0.4,0,0.5-0.1c0.1-0.1,0.2-0.2,0.3-0.3l2.1-3.1c0.1-0.2,0.3-0.3,0.4-0.4
		s0.4-0.1,0.6-0.1h3l-2.9,3.9c-0.3,0.4-0.6,0.6-1,0.9c0.2,0.1,0.3,0.3,0.4,0.4c0.1,0.2,0.3,0.3,0.4,0.5l3.1,5.3h-3
		c-0.2,0-0.5,0-0.6-0.1c-0.2-0.1-0.3-0.2-0.4-0.4l-2.1-3.9c-0.1-0.2-0.2-0.3-0.3-0.3c-0.1-0.1-0.3-0.1-0.5-0.1h-0.6v4.9h-3.3V10
		H103.5z"/>
	<path class="st27" d="M117,14.7c0.8,0,1.6,0.1,2.3,0.4c0.7,0.3,1.3,0.6,1.8,1.1c0.5,0.5,0.9,1.1,1.1,1.8c0.3,0.7,0.4,1.5,0.4,2.4
		c0,0.9-0.1,1.7-0.4,2.4c-0.3,0.7-0.7,1.3-1.1,1.8c-0.5,0.5-1.1,0.9-1.8,1.1S117.9,26,117,26c-0.8,0-1.6-0.1-2.3-0.4
		s-1.3-0.6-1.8-1.1c-0.5-0.5-0.9-1.1-1.2-1.8c-0.3-0.7-0.4-1.5-0.4-2.4c0-0.9,0.1-1.7,0.4-2.4c0.3-0.7,0.7-1.3,1.2-1.8
		s1.1-0.9,1.8-1.1C115.4,14.8,116.2,14.7,117,14.7z M117,23.6c0.8,0,1.3-0.3,1.7-0.8c0.4-0.5,0.5-1.3,0.5-2.4s-0.2-1.9-0.5-2.4
		c-0.4-0.5-0.9-0.8-1.7-0.8c-0.8,0-1.4,0.3-1.7,0.8c-0.4,0.5-0.5,1.3-0.5,2.4s0.2,1.9,0.5,2.4C115.7,23.3,116.3,23.6,117,23.6z"/>
	<path class="st27" d="M127.9,10v15.9h-3.3V10H127.9z"/>
	<path class="st27" d="M133.8,10v15.9h-3.3V10H133.8z"/>
	<path class="st27" d="M139,21c0.1,0.9,0.4,1.6,0.8,2c0.5,0.4,1,0.6,1.8,0.6c0.4,0,0.7,0,1-0.1c0.3-0.1,0.5-0.2,0.7-0.3
		s0.4-0.2,0.6-0.3s0.4-0.1,0.6-0.1c0.3,0,0.5,0.1,0.6,0.3l1,1.2c-0.3,0.4-0.7,0.7-1.1,1c-0.4,0.2-0.8,0.4-1.2,0.6
		c-0.4,0.1-0.8,0.2-1.2,0.3c-0.4,0.1-0.8,0.1-1.2,0.1c-0.8,0-1.5-0.1-2.2-0.4c-0.7-0.3-1.3-0.6-1.8-1.1c-0.5-0.5-0.9-1.1-1.2-1.9
		s-0.4-1.6-0.4-2.6c0-0.7,0.1-1.4,0.4-2.1c0.3-0.7,0.6-1.2,1.1-1.7c0.5-0.5,1-0.9,1.7-1.2s1.4-0.4,2.3-0.4c0.7,0,1.4,0.1,2,0.3
		c0.6,0.2,1.1,0.6,1.6,1s0.8,1,1,1.6c0.2,0.6,0.4,1.3,0.4,2.1c0,0.2,0,0.5,0,0.6c0,0.2-0.1,0.3-0.1,0.4c-0.1,0.1-0.1,0.2-0.2,0.2
		c-0.1,0-0.2,0.1-0.4,0.1H139z M143.2,19c0-0.3,0-0.5-0.1-0.8c-0.1-0.2-0.2-0.5-0.3-0.7c-0.2-0.2-0.4-0.4-0.6-0.5
		c-0.2-0.1-0.5-0.2-0.9-0.2c-0.6,0-1.1,0.2-1.5,0.5c-0.4,0.4-0.6,0.9-0.7,1.5H143.2z"/>
	<path class="st27" d="M151.4,10v8.9h0.5c0.2,0,0.4,0,0.5-0.1c0.1-0.1,0.2-0.2,0.3-0.3l2.1-3.1c0.1-0.2,0.3-0.3,0.4-0.4
		s0.4-0.1,0.6-0.1h3l-2.9,3.9c-0.3,0.4-0.6,0.6-1,0.9c0.2,0.1,0.3,0.3,0.4,0.4c0.1,0.2,0.3,0.3,0.4,0.5l3.1,5.3h-3
		c-0.2,0-0.5,0-0.6-0.1c-0.2-0.1-0.3-0.2-0.4-0.4l-2.1-3.9c-0.1-0.2-0.2-0.3-0.3-0.3c-0.1-0.1-0.3-0.1-0.5-0.1h-0.6v4.9h-3.3V10
		H151.4z"/>
	<path class="st27" d="M164.3,26c-0.5,0-1-0.1-1.4-0.2c-0.4-0.2-0.7-0.4-1-0.6s-0.5-0.6-0.6-1c-0.1-0.4-0.2-0.8-0.2-1.3v-5.7h-0.9
		c-0.2,0-0.3-0.1-0.4-0.2c-0.1-0.1-0.2-0.3-0.2-0.5v-1.3l1.8-0.3l0.6-2.7c0.1-0.3,0.3-0.5,0.7-0.5h1.7v3.2h2.7v2.3h-2.7v5.5
		c0,0.3,0.1,0.5,0.2,0.6c0.1,0.2,0.3,0.2,0.5,0.2c0.1,0,0.2,0,0.3,0c0.1,0,0.2-0.1,0.2-0.1s0.1-0.1,0.2-0.1c0.1,0,0.1,0,0.2,0
		c0.1,0,0.2,0,0.2,0.1c0.1,0,0.1,0.1,0.2,0.2l1,1.6c-0.4,0.3-0.9,0.6-1.4,0.7C165.4,26,164.8,26,164.3,26z"/>
	<path class="st27" d="M173.8,14.7c0.8,0,1.6,0.1,2.3,0.4c0.7,0.3,1.3,0.6,1.8,1.1c0.5,0.5,0.9,1.1,1.1,1.8c0.3,0.7,0.4,1.5,0.4,2.4
		c0,0.9-0.1,1.7-0.4,2.4c-0.3,0.7-0.7,1.3-1.1,1.8c-0.5,0.5-1.1,0.9-1.8,1.1s-1.5,0.4-2.3,0.4c-0.8,0-1.6-0.1-2.3-0.4
		s-1.3-0.6-1.8-1.1c-0.5-0.5-0.9-1.1-1.2-1.8c-0.3-0.7-0.4-1.5-0.4-2.4c0-0.9,0.1-1.7,0.4-2.4c0.3-0.7,0.7-1.3,1.2-1.8
		s1.1-0.9,1.8-1.1C172.2,14.8,172.9,14.7,173.8,14.7z M173.8,23.6c0.8,0,1.3-0.3,1.7-0.8c0.4-0.5,0.5-1.3,0.5-2.4s-0.2-1.9-0.5-2.4
		c-0.4-0.5-0.9-0.8-1.7-0.8c-0.8,0-1.4,0.3-1.7,0.8c-0.4,0.5-0.5,1.3-0.5,2.4s0.2,1.9,0.5,2.4C172.4,23.3,173,23.6,173.8,23.6z"/>
	<path class="st27" d="M184.5,16.5c0.3-0.6,0.7-1.1,1.2-1.4c0.4-0.3,1-0.5,1.5-0.5c0.5,0,0.9,0.1,1.2,0.4l-0.2,2.4
		c0,0.2-0.1,0.3-0.2,0.3c-0.1,0.1-0.2,0.1-0.3,0.1c-0.1,0-0.1,0-0.2,0s-0.2,0-0.3,0c-0.1,0-0.2,0-0.3,0c-0.1,0-0.2,0-0.3,0
		c-0.5,0-0.9,0.1-1.2,0.4c-0.3,0.3-0.5,0.6-0.7,1.1v6.7h-3.3v-11h2c0.2,0,0.3,0,0.4,0c0.1,0,0.2,0.1,0.3,0.1
		c0.1,0.1,0.1,0.1,0.2,0.2c0,0.1,0.1,0.2,0.1,0.4L184.5,16.5z"/>
	<path class="st27" d="M192.3,21c0.1,0.9,0.4,1.6,0.8,2c0.5,0.4,1,0.6,1.8,0.6c0.4,0,0.7,0,1-0.1c0.3-0.1,0.5-0.2,0.7-0.3
		s0.4-0.2,0.6-0.3s0.4-0.1,0.6-0.1c0.3,0,0.5,0.1,0.6,0.3l1,1.2c-0.3,0.4-0.7,0.7-1.1,1c-0.4,0.2-0.8,0.4-1.2,0.6
		c-0.4,0.1-0.8,0.2-1.2,0.3c-0.4,0.1-0.8,0.1-1.2,0.1c-0.8,0-1.5-0.1-2.2-0.4c-0.7-0.3-1.3-0.6-1.8-1.1c-0.5-0.5-0.9-1.1-1.2-1.9
		s-0.4-1.6-0.4-2.6c0-0.7,0.1-1.4,0.4-2.1c0.3-0.7,0.6-1.2,1.1-1.7c0.5-0.5,1-0.9,1.7-1.2s1.4-0.4,2.3-0.4c0.7,0,1.4,0.1,2,0.3
		c0.6,0.2,1.1,0.6,1.6,1s0.8,1,1,1.6c0.2,0.6,0.4,1.3,0.4,2.1c0,0.2,0,0.5,0,0.6c0,0.2-0.1,0.3-0.1,0.4c-0.1,0.1-0.1,0.2-0.2,0.2
		c-0.1,0-0.2,0.1-0.4,0.1H192.3z M196.5,19c0-0.3,0-0.5-0.1-0.8c-0.1-0.2-0.2-0.5-0.3-0.7c-0.2-0.2-0.4-0.4-0.6-0.5
		c-0.2-0.1-0.5-0.2-0.9-0.2c-0.6,0-1.1,0.2-1.5,0.5c-0.4,0.4-0.6,0.9-0.7,1.5H196.5z"/>
	<path class="st27" d="M204.4,16c0.2-0.2,0.4-0.4,0.7-0.6c0.2-0.2,0.5-0.3,0.7-0.4c0.3-0.1,0.5-0.2,0.8-0.3c0.3-0.1,0.6-0.1,1-0.1
		c0.6,0,1.1,0.1,1.6,0.3c0.5,0.2,0.9,0.5,1.2,0.9c0.3,0.4,0.6,0.8,0.7,1.3c0.2,0.5,0.2,1.1,0.2,1.7v7h-3.3v-7c0-0.5-0.1-1-0.4-1.3
		c-0.2-0.3-0.6-0.5-1.1-0.5c-0.4,0-0.7,0.1-1,0.2c-0.3,0.2-0.6,0.4-0.9,0.6v7.9h-3.3v-11h2c0.4,0,0.7,0.2,0.8,0.6L204.4,16z"/>
	<path class="st27" d="M221.4,19.2c0,0.7,0,1.4,0.1,2.1s0.2,1.4,0.4,2.1c0.2,0.7,0.4,1.4,0.6,2c0.2,0.7,0.5,1.3,0.8,1.9
		c0.1,0.2,0.1,0.3,0.2,0.5c0,0.1,0,0.2,0,0.3c0,0.1-0.1,0.2-0.2,0.3c-0.1,0.1-0.2,0.1-0.2,0.2l-1.5,0.9c-0.5-0.8-1-1.6-1.3-2.4
		c-0.4-0.8-0.7-1.7-0.9-2.5c-0.2-0.8-0.4-1.7-0.5-2.6c-0.1-0.9-0.2-1.8-0.2-2.7c0-0.9,0.1-1.8,0.2-2.7c0.1-0.9,0.3-1.7,0.5-2.6
		c0.2-0.8,0.5-1.7,0.9-2.5s0.8-1.6,1.3-2.4l1.5,0.9c0.1,0.1,0.2,0.1,0.2,0.2c0.1,0.1,0.1,0.2,0.2,0.3c0,0.1,0.1,0.2,0,0.3
		c0,0.1-0.1,0.3-0.2,0.5c-0.3,0.6-0.5,1.2-0.8,1.9c-0.2,0.7-0.4,1.3-0.6,2s-0.3,1.4-0.4,2.1S221.4,18.5,221.4,19.2z"/>
	<path class="st27" d="M235.4,23.5v2.4h-8.8v-2.4h3v-7.8c0-0.2,0-0.4,0-0.6c0-0.2,0-0.4,0-0.6l-1.8,1.5c-0.2,0.1-0.3,0.2-0.5,0.2
		c-0.2,0-0.3,0-0.4,0s-0.3-0.1-0.4-0.1c-0.1-0.1-0.2-0.1-0.2-0.2l-1-1.4l4.8-4.1h2.7v13.1H235.4z"/>
	<path class="st27" d="M239.4,19.2c0-0.7,0-1.4-0.1-2.1c-0.1-0.7-0.2-1.4-0.4-2.1s-0.4-1.4-0.6-2c-0.2-0.7-0.5-1.3-0.8-1.9
		c-0.1-0.2-0.1-0.3-0.2-0.5c0-0.1,0-0.2,0-0.3c0-0.1,0.1-0.2,0.2-0.3c0.1-0.1,0.2-0.1,0.2-0.2l1.5-0.9c1,1.6,1.8,3.3,2.2,4.9
		c0.5,1.7,0.7,3.5,0.7,5.3c0,1.8-0.2,3.6-0.7,5.3c-0.5,1.7-1.2,3.3-2.2,4.9l-1.5-0.9c-0.1-0.1-0.2-0.1-0.2-0.2
		c-0.1-0.1-0.1-0.2-0.2-0.3c0-0.1-0.1-0.2,0-0.3c0-0.1,0.1-0.3,0.2-0.5c0.3-0.6,0.5-1.2,0.8-1.9c0.2-0.7,0.4-1.3,0.6-2
		c0.2-0.7,0.3-1.4,0.4-2.1C239.4,20.6,239.4,19.9,239.4,19.2z"/>
</g>
<g class="st26">
	<path class="st27" d="M123.1,306.6c1.1,0,2,0.1,2.8,0.4c0.8,0.3,1.4,0.6,1.9,1.1c0.5,0.5,0.9,1,1.1,1.6s0.4,1.3,0.4,2
		c0,0.8-0.1,1.5-0.4,2.1c-0.2,0.6-0.6,1.2-1.1,1.7c-0.5,0.5-1.2,0.8-1.9,1.1c-0.8,0.3-1.7,0.4-2.8,0.4h-1.9v5.2h-3.6v-15.5H123.1z
		 M123.1,314.2c0.9,0,1.6-0.2,2-0.7c0.4-0.4,0.6-1.1,0.6-1.9c0-0.4-0.1-0.7-0.2-1c-0.1-0.3-0.3-0.5-0.5-0.8
		c-0.2-0.2-0.5-0.4-0.8-0.5c-0.3-0.1-0.7-0.2-1.2-0.2h-1.9v4.9H123.1z"/>
	<path class="st27" d="M140.6,311v11h-2c-0.4,0-0.7-0.2-0.8-0.6l-0.2-0.6c-0.2,0.2-0.4,0.4-0.7,0.6s-0.5,0.3-0.7,0.4
		c-0.3,0.1-0.5,0.2-0.8,0.3c-0.3,0.1-0.6,0.1-1,0.1c-0.6,0-1.1-0.1-1.6-0.3s-0.9-0.5-1.2-0.9c-0.3-0.4-0.6-0.8-0.7-1.3
		c-0.2-0.5-0.2-1.1-0.2-1.7v-7h3.3v7c0,0.5,0.1,1,0.4,1.3c0.2,0.3,0.6,0.4,1.1,0.4c0.4,0,0.7-0.1,1-0.2c0.3-0.2,0.6-0.4,0.9-0.6V311
		H140.6z"/>
	<path class="st27" d="M142.9,322.1v-11h2c0.4,0,0.7,0.2,0.8,0.6l0.2,0.6c0.2-0.2,0.4-0.4,0.6-0.5c0.2-0.2,0.4-0.3,0.6-0.4
		s0.5-0.2,0.7-0.3c0.3-0.1,0.6-0.1,0.9-0.1c0.7,0,1.2,0.2,1.7,0.5c0.4,0.3,0.8,0.8,1,1.4c0.2-0.3,0.4-0.6,0.7-0.9
		c0.3-0.2,0.6-0.4,0.9-0.6c0.3-0.1,0.6-0.3,1-0.3c0.3-0.1,0.7-0.1,1-0.1c0.6,0,1.2,0.1,1.7,0.3s0.9,0.5,1.2,0.8
		c0.3,0.4,0.6,0.8,0.8,1.3c0.2,0.5,0.3,1.1,0.3,1.8v7h-3.3v-7c0-1.1-0.5-1.7-1.5-1.7c-0.4,0-0.8,0.1-1.1,0.4
		c-0.3,0.3-0.4,0.7-0.4,1.3v7h-3.3v-7c0-0.6-0.1-1.1-0.4-1.3c-0.2-0.3-0.6-0.4-1.1-0.4c-0.3,0-0.6,0.1-0.8,0.2
		c-0.3,0.1-0.5,0.3-0.8,0.5v8H142.9z"/>
	<path class="st27" d="M164.1,312.4c0.4-0.5,0.9-0.8,1.5-1.1c0.5-0.3,1.2-0.4,2-0.4c0.6,0,1.1,0.1,1.6,0.4c0.5,0.3,0.9,0.6,1.3,1.1
		s0.6,1.1,0.8,1.8c0.2,0.7,0.3,1.5,0.3,2.4c0,0.8-0.1,1.6-0.3,2.3c-0.2,0.7-0.6,1.3-1,1.8s-0.9,0.9-1.5,1.2
		c-0.6,0.3-1.2,0.4-1.9,0.4c-0.6,0-1.1-0.1-1.4-0.2s-0.7-0.4-1.1-0.7v4.2H161V311h2c0.4,0,0.7,0.2,0.8,0.6L164.1,312.4z
		 M164.3,319.1c0.2,0.3,0.5,0.5,0.8,0.6c0.3,0.1,0.6,0.2,0.9,0.2c0.3,0,0.6-0.1,0.8-0.2c0.3-0.1,0.5-0.3,0.7-0.6s0.3-0.6,0.4-1
		c0.1-0.4,0.2-0.9,0.2-1.6c0-0.6,0-1.1-0.1-1.5c-0.1-0.4-0.2-0.7-0.4-1c-0.2-0.2-0.3-0.4-0.5-0.5s-0.5-0.2-0.7-0.2
		c-0.5,0-0.9,0.1-1.2,0.3c-0.3,0.2-0.6,0.4-0.9,0.8V319.1z"/>
	<path class="st27" d="M175.9,317.2c0.1,0.9,0.4,1.6,0.8,2c0.5,0.4,1,0.6,1.8,0.6c0.4,0,0.7,0,1-0.1c0.3-0.1,0.5-0.2,0.7-0.3
		s0.4-0.2,0.6-0.3s0.4-0.1,0.6-0.1c0.3,0,0.5,0.1,0.6,0.3l1,1.2c-0.3,0.4-0.7,0.7-1.1,1c-0.4,0.2-0.8,0.4-1.2,0.6
		c-0.4,0.1-0.8,0.2-1.2,0.3c-0.4,0.1-0.8,0.1-1.2,0.1c-0.8,0-1.5-0.1-2.2-0.4c-0.7-0.3-1.3-0.6-1.8-1.1c-0.5-0.5-0.9-1.1-1.2-1.9
		s-0.4-1.6-0.4-2.6c0-0.7,0.1-1.4,0.4-2.1c0.3-0.7,0.6-1.2,1.1-1.7c0.5-0.5,1-0.9,1.7-1.2s1.4-0.4,2.3-0.4c0.7,0,1.4,0.1,2,0.3
		c0.6,0.2,1.1,0.6,1.6,1s0.8,1,1,1.6c0.2,0.6,0.4,1.3,0.4,2.1c0,0.2,0,0.5,0,0.6c0,0.2-0.1,0.3-0.1,0.4c-0.1,0.1-0.1,0.2-0.2,0.2
		c-0.1,0-0.2,0.1-0.4,0.1H175.9z M180.1,315.2c0-0.3,0-0.5-0.1-0.8c-0.1-0.2-0.2-0.5-0.3-0.7c-0.2-0.2-0.4-0.4-0.6-0.5
		c-0.2-0.1-0.5-0.2-0.9-0.2c-0.6,0-1.1,0.2-1.5,0.5c-0.4,0.4-0.6,0.9-0.7,1.5H180.1z"/>
	<path class="st27" d="M191.9,315.4c0,0.7,0,1.4,0.1,2.1s0.2,1.4,0.4,2.1c0.2,0.7,0.4,1.4,0.6,2c0.2,0.7,0.5,1.3,0.8,1.9
		c0.1,0.2,0.1,0.3,0.2,0.5c0,0.1,0,0.2,0,0.3c0,0.1-0.1,0.2-0.2,0.3c-0.1,0.1-0.2,0.1-0.2,0.2l-1.5,0.9c-0.5-0.8-1-1.6-1.3-2.4
		c-0.4-0.8-0.7-1.7-0.9-2.5c-0.2-0.8-0.4-1.7-0.5-2.6c-0.1-0.9-0.2-1.8-0.2-2.7c0-0.9,0.1-1.8,0.2-2.7c0.1-0.9,0.3-1.7,0.5-2.6
		c0.2-0.8,0.5-1.7,0.9-2.5s0.8-1.6,1.3-2.4l1.5,0.9c0.1,0.1,0.2,0.1,0.2,0.2c0.1,0.1,0.1,0.2,0.2,0.3c0,0.1,0.1,0.2,0,0.3
		c0,0.1-0.1,0.3-0.2,0.5c-0.3,0.6-0.5,1.2-0.8,1.9c-0.2,0.7-0.4,1.3-0.6,2s-0.3,1.4-0.4,2.1S191.9,314.7,191.9,315.4z"/>
	<path class="st27" d="M204.8,319.1c0.4,0,0.6,0.1,0.8,0.3c0.2,0.2,0.3,0.5,0.3,0.8v1.9h-10.9V321c0-0.2,0-0.4,0.1-0.7
		c0.1-0.2,0.2-0.4,0.4-0.6l4.5-4.5c0.4-0.4,0.7-0.7,1-1.1c0.3-0.3,0.5-0.7,0.7-1c0.2-0.3,0.3-0.7,0.4-1s0.1-0.7,0.1-1.1
		c0-0.6-0.1-1.1-0.4-1.4c-0.3-0.3-0.7-0.5-1.3-0.5c-0.5,0-0.9,0.1-1.2,0.4c-0.3,0.3-0.6,0.6-0.7,1c-0.1,0.4-0.3,0.6-0.6,0.8
		c-0.2,0.1-0.6,0.2-1,0.1l-1.7-0.3c0.1-0.8,0.3-1.4,0.7-2c0.3-0.6,0.7-1.1,1.2-1.4c0.5-0.4,1-0.7,1.6-0.9c0.6-0.2,1.3-0.3,2-0.3
		c0.8,0,1.5,0.1,2.1,0.3c0.6,0.2,1.1,0.5,1.6,0.9c0.4,0.4,0.8,0.9,1,1.4s0.3,1.2,0.3,1.8c0,0.6-0.1,1.1-0.2,1.6s-0.4,0.9-0.7,1.4
		c-0.3,0.4-0.6,0.9-1,1.3c-0.4,0.4-0.8,0.8-1.2,1.2l-3,3.1c0.4-0.1,0.8-0.2,1.2-0.3c0.4-0.1,0.7-0.1,1.1-0.1H204.8z"/>
	<path class="st27" d="M209.3,315.4c0-0.7,0-1.4-0.1-2.1c-0.1-0.7-0.2-1.4-0.4-2.1s-0.4-1.4-0.6-2c-0.2-0.7-0.5-1.3-0.8-1.9
		c-0.1-0.2-0.1-0.3-0.2-0.5c0-0.1,0-0.2,0-0.3c0-0.1,0.1-0.2,0.2-0.3c0.1-0.1,0.2-0.1,0.2-0.2l1.5-0.9c1,1.6,1.8,3.3,2.2,4.9
		c0.5,1.7,0.7,3.5,0.7,5.3c0,1.8-0.2,3.6-0.7,5.3c-0.5,1.7-1.2,3.3-2.2,4.9l-1.5-0.9c-0.1-0.1-0.2-0.1-0.2-0.2
		c-0.1-0.1-0.1-0.2-0.2-0.3c0-0.1-0.1-0.2,0-0.3c0-0.1,0.1-0.3,0.2-0.5c0.3-0.6,0.5-1.2,0.8-1.9c0.2-0.7,0.4-1.3,0.6-2
		c0.2-0.7,0.3-1.4,0.4-2.1C209.3,316.8,209.3,316.1,209.3,315.4z"/>
</g>
<g class="st26">
	<path class="st27" d="M100.7,402.4c-0.1,0.2-0.2,0.3-0.3,0.4c-0.1,0.1-0.3,0.1-0.5,0.1c-0.2,0-0.3-0.1-0.5-0.2s-0.4-0.2-0.6-0.3
		c-0.2-0.1-0.5-0.2-0.8-0.3c-0.3-0.1-0.7-0.2-1-0.2c-0.7,0-1.2,0.1-1.5,0.4s-0.5,0.7-0.5,1.2c0,0.3,0.1,0.6,0.3,0.8
		c0.2,0.2,0.5,0.4,0.8,0.5c0.3,0.1,0.7,0.3,1.1,0.4c0.4,0.1,0.8,0.3,1.3,0.4s0.9,0.3,1.3,0.5c0.4,0.2,0.8,0.5,1.1,0.8
		s0.6,0.7,0.8,1.2c0.2,0.5,0.3,1,0.3,1.7c0,0.7-0.1,1.4-0.4,2c-0.2,0.6-0.6,1.2-1.1,1.6s-1.1,0.8-1.7,1.1s-1.5,0.4-2.4,0.4
		c-0.5,0-1,0-1.5-0.1c-0.5-0.1-1-0.2-1.5-0.4c-0.5-0.2-0.9-0.4-1.3-0.6c-0.4-0.2-0.8-0.5-1.1-0.8l1.1-1.7c0.1-0.1,0.2-0.2,0.3-0.3
		c0.1-0.1,0.3-0.1,0.5-0.1c0.2,0,0.4,0.1,0.6,0.2c0.2,0.1,0.5,0.3,0.7,0.4c0.3,0.2,0.6,0.3,0.9,0.4c0.4,0.1,0.8,0.2,1.3,0.2
		c0.7,0,1.2-0.1,1.5-0.4c0.4-0.3,0.5-0.7,0.5-1.4c0-0.4-0.1-0.7-0.3-0.9c-0.2-0.2-0.5-0.4-0.8-0.6c-0.3-0.1-0.7-0.3-1.1-0.4
		c-0.4-0.1-0.8-0.2-1.3-0.4c-0.4-0.1-0.9-0.3-1.3-0.5c-0.4-0.2-0.8-0.5-1.1-0.8c-0.3-0.3-0.6-0.7-0.8-1.2c-0.2-0.5-0.3-1.1-0.3-1.8
		c0-0.6,0.1-1.1,0.4-1.7c0.2-0.6,0.6-1,1-1.5c0.5-0.4,1-0.8,1.7-1s1.4-0.4,2.3-0.4c0.5,0,0.9,0,1.4,0.1s0.9,0.2,1.3,0.3
		c0.4,0.1,0.8,0.3,1.1,0.5s0.7,0.4,0.9,0.7L100.7,402.4z"/>
	<path class="st27" d="M106.4,405.1c0.4-0.5,0.9-0.8,1.5-1.1c0.5-0.3,1.2-0.4,2-0.4c0.6,0,1.1,0.1,1.6,0.4c0.5,0.3,0.9,0.6,1.3,1.1
		s0.6,1.1,0.8,1.8c0.2,0.7,0.3,1.5,0.3,2.4c0,0.8-0.1,1.6-0.3,2.3c-0.2,0.7-0.6,1.3-1,1.8s-0.9,0.9-1.5,1.2
		c-0.6,0.3-1.2,0.4-1.9,0.4c-0.6,0-1.1-0.1-1.4-0.2s-0.7-0.4-1.1-0.7v4.2h-3.3v-14.5h2c0.4,0,0.7,0.2,0.8,0.6L106.4,405.1z
		 M106.6,411.8c0.2,0.3,0.5,0.5,0.8,0.6c0.3,0.1,0.6,0.2,0.9,0.2c0.3,0,0.6-0.1,0.8-0.2c0.3-0.1,0.5-0.3,0.7-0.6s0.3-0.6,0.4-1
		c0.1-0.4,0.2-0.9,0.2-1.6c0-0.6,0-1.1-0.1-1.5c-0.1-0.4-0.2-0.7-0.4-1c-0.2-0.2-0.3-0.4-0.5-0.5s-0.5-0.2-0.7-0.2
		c-0.5,0-0.9,0.1-1.2,0.3c-0.3,0.2-0.6,0.4-0.9,0.8V411.8z"/>
	<path class="st27" d="M118.3,409.9c0.1,0.9,0.4,1.6,0.8,2c0.5,0.4,1,0.6,1.8,0.6c0.4,0,0.7,0,1-0.1c0.3-0.1,0.5-0.2,0.7-0.3
		s0.4-0.2,0.6-0.3s0.4-0.1,0.6-0.1c0.3,0,0.5,0.1,0.6,0.3l1,1.2c-0.3,0.4-0.7,0.7-1.1,1c-0.4,0.2-0.8,0.4-1.2,0.6
		c-0.4,0.1-0.8,0.2-1.2,0.3c-0.4,0.1-0.8,0.1-1.2,0.1c-0.8,0-1.5-0.1-2.2-0.4c-0.7-0.3-1.3-0.6-1.8-1.1c-0.5-0.5-0.9-1.1-1.2-1.9
		S115,410,115,409c0-0.7,0.1-1.4,0.4-2.1c0.3-0.7,0.6-1.2,1.1-1.7c0.5-0.5,1-0.9,1.7-1.2s1.4-0.4,2.3-0.4c0.7,0,1.4,0.1,2,0.3
		c0.6,0.2,1.1,0.6,1.6,1s0.8,1,1,1.6c0.2,0.6,0.4,1.3,0.4,2.1c0,0.2,0,0.5,0,0.6c0,0.2-0.1,0.3-0.1,0.4c-0.1,0.1-0.1,0.2-0.2,0.2
		c-0.1,0-0.2,0.1-0.4,0.1H118.3z M122.4,407.9c0-0.3,0-0.5-0.1-0.8c-0.1-0.2-0.2-0.5-0.3-0.7c-0.2-0.2-0.4-0.4-0.6-0.5
		c-0.2-0.1-0.5-0.2-0.9-0.2c-0.6,0-1.1,0.2-1.5,0.5c-0.4,0.4-0.6,0.9-0.7,1.5H122.4z"/>
	<path class="st27" d="M130.7,400.7c0,0.3-0.1,0.5-0.2,0.7c-0.1,0.2-0.3,0.4-0.4,0.6c-0.2,0.2-0.4,0.3-0.6,0.4s-0.5,0.2-0.8,0.2
		c-0.3,0-0.5-0.1-0.8-0.2c-0.2-0.1-0.4-0.2-0.6-0.4s-0.3-0.4-0.4-0.6c-0.1-0.2-0.2-0.5-0.2-0.7c0-0.3,0.1-0.5,0.2-0.8
		c0.1-0.2,0.2-0.4,0.4-0.6c0.2-0.2,0.4-0.3,0.6-0.4c0.2-0.1,0.5-0.1,0.8-0.1c0.3,0,0.5,0,0.8,0.1c0.2,0.1,0.5,0.2,0.6,0.4
		c0.2,0.2,0.3,0.4,0.4,0.6C130.7,400.2,130.7,400.5,130.7,400.7z M130.4,403.8v11h-3.3v-11H130.4z"/>
	<path class="st27" d="M140.8,406.4c-0.1,0.1-0.2,0.2-0.3,0.3c-0.1,0.1-0.2,0.1-0.4,0.1c-0.2,0-0.3,0-0.4-0.1
		c-0.1-0.1-0.3-0.2-0.4-0.3s-0.4-0.2-0.6-0.3c-0.2-0.1-0.5-0.1-0.8-0.1c-0.4,0-0.8,0.1-1,0.2c-0.3,0.1-0.5,0.4-0.7,0.6
		s-0.3,0.6-0.4,1c-0.1,0.4-0.1,0.9-0.1,1.4c0,1.1,0.2,1.9,0.6,2.4c0.4,0.6,1,0.9,1.7,0.9c0.4,0,0.7,0,0.9-0.1
		c0.2-0.1,0.4-0.2,0.6-0.3s0.3-0.2,0.4-0.3c0.1-0.1,0.3-0.1,0.5-0.1c0.3,0,0.5,0.1,0.6,0.3l1,1.2c-0.3,0.4-0.7,0.7-1.1,1
		c-0.4,0.2-0.8,0.4-1.2,0.6c-0.4,0.1-0.8,0.2-1.2,0.3c-0.4,0.1-0.8,0.1-1.2,0.1c-0.7,0-1.3-0.1-1.9-0.4c-0.6-0.3-1.2-0.6-1.6-1.1
		s-0.8-1.1-1.1-1.8c-0.3-0.7-0.4-1.5-0.4-2.4c0-0.8,0.1-1.5,0.4-2.2c0.2-0.7,0.6-1.3,1.1-1.8c0.5-0.5,1-0.9,1.7-1.2
		c0.7-0.3,1.5-0.4,2.4-0.4c0.9,0,1.6,0.1,2.3,0.4c0.7,0.3,1.2,0.7,1.8,1.2L140.8,406.4z"/>
	<path class="st27" d="M146.3,404.7c0.4-0.3,0.8-0.6,1.3-0.8c0.5-0.2,1-0.3,1.7-0.3c0.6,0,1.1,0.1,1.6,0.3c0.5,0.2,0.9,0.5,1.2,0.9
		c0.3,0.4,0.6,0.8,0.7,1.3c0.2,0.5,0.2,1.1,0.2,1.7v7h-3.3v-7c0-0.5-0.1-1-0.4-1.3c-0.2-0.3-0.6-0.5-1.1-0.5c-0.4,0-0.7,0.1-1,0.2
		c-0.3,0.2-0.6,0.4-0.9,0.6v7.9H143v-15.9h3.3V404.7z"/>
	<path class="st27" d="M157.9,409.9c0.1,0.9,0.4,1.6,0.8,2c0.5,0.4,1,0.6,1.8,0.6c0.4,0,0.7,0,1-0.1c0.3-0.1,0.5-0.2,0.7-0.3
		s0.4-0.2,0.6-0.3s0.4-0.1,0.6-0.1c0.3,0,0.5,0.1,0.6,0.3l1,1.2c-0.3,0.4-0.7,0.7-1.1,1c-0.4,0.2-0.8,0.4-1.2,0.6
		c-0.4,0.1-0.8,0.2-1.2,0.3c-0.4,0.1-0.8,0.1-1.2,0.1c-0.8,0-1.5-0.1-2.2-0.4c-0.7-0.3-1.3-0.6-1.8-1.1c-0.5-0.5-0.9-1.1-1.2-1.9
		s-0.4-1.6-0.4-2.6c0-0.7,0.1-1.4,0.4-2.1c0.3-0.7,0.6-1.2,1.1-1.7c0.5-0.5,1-0.9,1.7-1.2s1.4-0.4,2.3-0.4c0.7,0,1.4,0.1,2,0.3
		c0.6,0.2,1.1,0.6,1.6,1s0.8,1,1,1.6c0.2,0.6,0.4,1.3,0.4,2.1c0,0.2,0,0.5,0,0.6c0,0.2-0.1,0.3-0.1,0.4c-0.1,0.1-0.1,0.2-0.2,0.2
		c-0.1,0-0.2,0.1-0.4,0.1H157.9z M162,407.9c0-0.3,0-0.5-0.1-0.8c-0.1-0.2-0.2-0.5-0.3-0.7c-0.2-0.2-0.4-0.4-0.6-0.5
		c-0.2-0.1-0.5-0.2-0.9-0.2c-0.6,0-1.1,0.2-1.5,0.5c-0.4,0.4-0.6,0.9-0.7,1.5H162z"/>
	<path class="st27" d="M169.7,405.5c0.3-0.6,0.7-1.1,1.2-1.4c0.4-0.3,1-0.5,1.5-0.5c0.5,0,0.9,0.1,1.2,0.4l-0.2,2.4
		c0,0.2-0.1,0.3-0.2,0.3c-0.1,0.1-0.2,0.1-0.3,0.1c-0.1,0-0.1,0-0.2,0s-0.2,0-0.3,0c-0.1,0-0.2,0-0.3,0c-0.1,0-0.2,0-0.3,0
		c-0.5,0-0.9,0.1-1.2,0.4c-0.3,0.3-0.5,0.6-0.7,1.1v6.7h-3.3v-11h2c0.2,0,0.3,0,0.4,0c0.1,0,0.2,0.1,0.3,0.1
		c0.1,0.1,0.1,0.1,0.2,0.2c0,0.1,0.1,0.2,0.1,0.4L169.7,405.5z"/>
	<path class="st27" d="M181.6,408.1c0,0.7,0,1.4,0.1,2.1s0.2,1.4,0.4,2.1c0.2,0.7,0.4,1.4,0.6,2c0.2,0.7,0.5,1.3,0.8,1.9
		c0.1,0.2,0.1,0.3,0.2,0.5c0,0.1,0,0.2,0,0.3c0,0.1-0.1,0.2-0.2,0.3c-0.1,0.1-0.2,0.1-0.2,0.2l-1.5,0.9c-0.5-0.8-1-1.6-1.3-2.4
		c-0.4-0.8-0.7-1.7-0.9-2.5c-0.2-0.8-0.4-1.7-0.5-2.6c-0.1-0.9-0.2-1.8-0.2-2.7c0-0.9,0.1-1.8,0.2-2.7c0.1-0.9,0.3-1.7,0.5-2.6
		c0.2-0.8,0.5-1.7,0.9-2.5s0.8-1.6,1.3-2.4l1.5,0.9c0.1,0.1,0.2,0.1,0.2,0.2c0.1,0.1,0.1,0.2,0.2,0.3c0,0.1,0.1,0.2,0,0.3
		c0,0.1-0.1,0.3-0.2,0.5c-0.3,0.6-0.5,1.2-0.8,1.9c-0.2,0.7-0.4,1.3-0.6,2s-0.3,1.4-0.4,2.1S181.6,407.4,181.6,408.1z"/>
	<path class="st27" d="M185,403.7c0.1-0.8,0.3-1.4,0.7-2c0.3-0.6,0.7-1.1,1.2-1.4c0.5-0.4,1-0.7,1.6-0.9c0.6-0.2,1.3-0.3,2-0.3
		c0.8,0,1.4,0.1,2,0.3c0.6,0.2,1.1,0.5,1.5,0.9c0.4,0.4,0.7,0.8,0.9,1.3s0.3,1,0.3,1.5c0,0.5,0,0.9-0.1,1.3c-0.1,0.4-0.2,0.7-0.4,1
		c-0.2,0.3-0.4,0.5-0.7,0.7c-0.3,0.2-0.6,0.3-1,0.5c1.7,0.6,2.6,1.8,2.6,3.5c0,0.8-0.1,1.5-0.4,2.1s-0.7,1.1-1.2,1.5
		c-0.5,0.4-1.1,0.7-1.7,0.9c-0.7,0.2-1.3,0.3-2.1,0.3c-0.7,0-1.4-0.1-2-0.2c-0.6-0.2-1.1-0.4-1.5-0.7s-0.8-0.8-1.2-1.3
		c-0.3-0.5-0.6-1.1-0.9-1.9l1.5-0.6c0.4-0.1,0.7-0.2,1.1-0.1c0.3,0.1,0.6,0.2,0.7,0.5c0.3,0.6,0.7,1,1,1.3c0.4,0.3,0.8,0.4,1.3,0.4
		c0.4,0,0.7-0.1,1-0.2c0.3-0.1,0.5-0.3,0.7-0.5s0.3-0.4,0.4-0.7c0.1-0.2,0.1-0.5,0.1-0.8c0-0.3,0-0.6-0.1-0.9c0-0.3-0.2-0.5-0.4-0.7
		s-0.5-0.3-1-0.4c-0.4-0.1-1-0.2-1.8-0.2v-2.3c0.6,0,1.2,0,1.6-0.1c0.4-0.1,0.7-0.2,0.9-0.4c0.2-0.2,0.4-0.4,0.4-0.6
		s0.1-0.5,0.1-0.8c0-0.6-0.1-1.1-0.4-1.4c-0.3-0.3-0.7-0.5-1.3-0.5c-0.5,0-0.9,0.1-1.2,0.4s-0.6,0.6-0.7,1c-0.1,0.4-0.3,0.6-0.6,0.8
		c-0.2,0.1-0.6,0.2-1,0.1L185,403.7z"/>
	<path class="st27" d="M198.9,408.1c0-0.7,0-1.4-0.1-2.1c-0.1-0.7-0.2-1.4-0.4-2.1s-0.4-1.4-0.6-2c-0.2-0.7-0.5-1.3-0.8-1.9
		c-0.1-0.2-0.1-0.3-0.2-0.5c0-0.1,0-0.2,0-0.3c0-0.1,0.1-0.2,0.2-0.3c0.1-0.1,0.2-0.1,0.2-0.2l1.5-0.9c1,1.6,1.8,3.3,2.2,4.9
		c0.5,1.7,0.7,3.5,0.7,5.3c0,1.8-0.2,3.6-0.7,5.3c-0.5,1.7-1.2,3.3-2.2,4.9l-1.5-0.9c-0.1-0.1-0.2-0.1-0.2-0.2
		c-0.1-0.1-0.1-0.2-0.2-0.3c0-0.1-0.1-0.2,0-0.3c0-0.1,0.1-0.3,0.2-0.5c0.3-0.6,0.5-1.2,0.8-1.9c0.2-0.7,0.4-1.3,0.6-2
		c0.2-0.7,0.3-1.4,0.4-2.1C198.9,409.5,198.9,408.8,198.9,408.1z"/>
</g>
<g class="st26">
	<path class="st27" d="M870,178.7c0,1.1-0.2,2.2-0.6,3.1c-0.4,0.9-0.9,1.8-1.6,2.5s-1.5,1.2-2.5,1.6c-1,0.4-2.1,0.6-3.3,0.6h-6V171
		h6c1.2,0,2.3,0.2,3.3,0.6s1.8,0.9,2.5,1.6c0.7,0.7,1.2,1.5,1.6,2.5C869.8,176.6,870,177.6,870,178.7z M866.4,178.7
		c0-0.8-0.1-1.5-0.3-2.1c-0.2-0.6-0.5-1.1-0.9-1.6s-0.8-0.8-1.4-1c-0.5-0.2-1.2-0.3-1.8-0.3h-2.4v10h2.4c0.7,0,1.3-0.1,1.8-0.3
		c0.5-0.2,1-0.6,1.4-1s0.7-1,0.9-1.6C866.3,180.2,866.4,179.5,866.4,178.7z"/>
	<path class="st27" d="M881.5,175.4v11h-2c-0.4,0-0.7-0.2-0.8-0.6l-0.2-0.6c-0.2,0.2-0.4,0.4-0.7,0.6c-0.2,0.2-0.5,0.3-0.7,0.4
		c-0.3,0.1-0.5,0.2-0.8,0.3s-0.6,0.1-1,0.1c-0.6,0-1.1-0.1-1.6-0.3c-0.5-0.2-0.9-0.5-1.2-0.9c-0.3-0.4-0.6-0.8-0.7-1.3
		s-0.2-1.1-0.2-1.7v-7h3.3v7c0,0.5,0.1,1,0.4,1.3c0.2,0.3,0.6,0.4,1.1,0.4c0.4,0,0.7-0.1,1-0.2c0.3-0.2,0.6-0.4,0.9-0.6v-7.9H881.5z
		"/>
	<path class="st27" d="M890.8,177.8c-0.1,0.1-0.2,0.2-0.3,0.3s-0.2,0.1-0.4,0.1c-0.2,0-0.3,0-0.5-0.1c-0.2-0.1-0.3-0.1-0.5-0.2
		c-0.2-0.1-0.4-0.2-0.6-0.2s-0.5-0.1-0.8-0.1c-0.4,0-0.7,0.1-1,0.2s-0.3,0.4-0.3,0.7c0,0.2,0.1,0.4,0.2,0.5s0.3,0.3,0.6,0.4
		c0.2,0.1,0.5,0.2,0.8,0.3c0.3,0.1,0.6,0.2,0.9,0.3s0.6,0.2,0.9,0.4c0.3,0.2,0.6,0.3,0.8,0.6c0.2,0.2,0.4,0.5,0.6,0.8
		s0.2,0.7,0.2,1.1c0,0.5-0.1,1-0.3,1.5c-0.2,0.5-0.5,0.9-0.9,1.2s-0.9,0.6-1.5,0.8c-0.6,0.2-1.2,0.3-2,0.3c-0.4,0-0.8,0-1.1-0.1
		c-0.4-0.1-0.7-0.2-1.1-0.3c-0.4-0.1-0.7-0.3-1-0.4c-0.3-0.2-0.6-0.3-0.8-0.5l0.8-1.2c0.1-0.1,0.2-0.3,0.3-0.3
		c0.1-0.1,0.3-0.1,0.5-0.1c0.2,0,0.4,0,0.5,0.1c0.2,0.1,0.3,0.2,0.5,0.3c0.2,0.1,0.4,0.2,0.6,0.3s0.5,0.1,0.9,0.1
		c0.3,0,0.5,0,0.6-0.1c0.2-0.1,0.3-0.1,0.4-0.2c0.1-0.1,0.2-0.2,0.2-0.3s0.1-0.2,0.1-0.4c0-0.2-0.1-0.4-0.2-0.5
		c-0.1-0.1-0.3-0.3-0.6-0.4c-0.2-0.1-0.5-0.2-0.8-0.3c-0.3-0.1-0.6-0.2-0.9-0.3c-0.3-0.1-0.6-0.2-0.9-0.4c-0.3-0.2-0.6-0.4-0.8-0.6
		c-0.2-0.2-0.4-0.5-0.6-0.9c-0.1-0.4-0.2-0.8-0.2-1.3c0-0.5,0.1-0.9,0.3-1.3c0.2-0.4,0.5-0.8,0.8-1.1c0.4-0.3,0.8-0.6,1.4-0.8
		s1.2-0.3,1.9-0.3c0.4,0,0.8,0,1.2,0.1c0.4,0.1,0.7,0.2,1,0.3c0.3,0.1,0.6,0.3,0.9,0.5s0.5,0.4,0.7,0.6L890.8,177.8z"/>
	<path class="st27" d="M901.4,178.1c-0.1,0.1-0.2,0.2-0.3,0.3c-0.1,0.1-0.2,0.1-0.4,0.1c-0.2,0-0.3,0-0.4-0.1
		c-0.1-0.1-0.3-0.2-0.4-0.3s-0.4-0.2-0.6-0.3s-0.5-0.1-0.8-0.1c-0.4,0-0.8,0.1-1,0.2c-0.3,0.1-0.5,0.4-0.7,0.6s-0.3,0.6-0.4,1
		c-0.1,0.4-0.1,0.9-0.1,1.4c0,1.1,0.2,1.9,0.6,2.4c0.4,0.6,1,0.9,1.7,0.9c0.4,0,0.7,0,0.9-0.1s0.4-0.2,0.6-0.3
		c0.2-0.1,0.3-0.2,0.4-0.3s0.3-0.1,0.5-0.1c0.3,0,0.5,0.1,0.6,0.3l1,1.2c-0.3,0.4-0.7,0.7-1.1,1c-0.4,0.2-0.8,0.4-1.2,0.6
		c-0.4,0.1-0.8,0.2-1.2,0.3c-0.4,0.1-0.8,0.1-1.2,0.1c-0.7,0-1.3-0.1-1.9-0.4c-0.6-0.3-1.2-0.6-1.6-1.1c-0.5-0.5-0.8-1.1-1.1-1.8
		c-0.3-0.7-0.4-1.5-0.4-2.4c0-0.8,0.1-1.5,0.4-2.2s0.6-1.3,1.1-1.8c0.5-0.5,1-0.9,1.7-1.2s1.5-0.4,2.4-0.4c0.9,0,1.6,0.1,2.3,0.4
		c0.7,0.3,1.2,0.7,1.8,1.2L901.4,178.1z"/>
	<path class="st27" d="M906.9,176.4c0.4-0.3,0.8-0.6,1.3-0.8c0.5-0.2,1-0.3,1.7-0.3c0.6,0,1.1,0.1,1.6,0.3c0.5,0.2,0.9,0.5,1.2,0.9
		s0.6,0.8,0.7,1.3c0.2,0.5,0.2,1.1,0.2,1.7v7h-3.3v-7c0-0.5-0.1-1-0.4-1.3c-0.2-0.3-0.6-0.5-1.1-0.5c-0.4,0-0.7,0.1-1,0.2
		c-0.3,0.2-0.6,0.4-0.9,0.6v7.9h-3.3v-15.9h3.3V176.4z"/>
	<path class="st27" d="M918.4,181.5c0.1,0.9,0.4,1.6,0.8,2s1,0.6,1.8,0.6c0.4,0,0.7,0,1-0.1c0.3-0.1,0.5-0.2,0.7-0.3
		c0.2-0.1,0.4-0.2,0.6-0.3s0.4-0.1,0.6-0.1c0.3,0,0.5,0.1,0.6,0.3l1,1.2c-0.3,0.4-0.7,0.7-1.1,1c-0.4,0.2-0.8,0.4-1.2,0.6
		c-0.4,0.1-0.8,0.2-1.2,0.3c-0.4,0.1-0.8,0.1-1.2,0.1c-0.8,0-1.5-0.1-2.2-0.4c-0.7-0.3-1.3-0.6-1.8-1.1c-0.5-0.5-0.9-1.1-1.2-1.9
		c-0.3-0.7-0.4-1.6-0.4-2.6c0-0.7,0.1-1.4,0.4-2.1c0.3-0.7,0.6-1.2,1.1-1.7c0.5-0.5,1-0.9,1.7-1.2s1.4-0.4,2.3-0.4
		c0.7,0,1.4,0.1,2,0.3s1.1,0.6,1.6,1c0.4,0.4,0.8,1,1,1.6c0.2,0.6,0.4,1.3,0.4,2.1c0,0.2,0,0.5,0,0.6s-0.1,0.3-0.1,0.4
		c-0.1,0.1-0.1,0.2-0.2,0.2c-0.1,0-0.2,0.1-0.4,0.1H918.4z M922.6,179.6c0-0.3,0-0.5-0.1-0.8s-0.2-0.5-0.3-0.7
		c-0.2-0.2-0.4-0.4-0.6-0.5c-0.2-0.1-0.5-0.2-0.9-0.2c-0.6,0-1.1,0.2-1.5,0.5c-0.4,0.4-0.6,0.9-0.7,1.5H922.6z"/>
	<path class="st27" d="M934.5,179.8c0,0.7,0,1.4,0.1,2.1c0.1,0.7,0.2,1.4,0.4,2.1c0.2,0.7,0.4,1.4,0.6,2c0.2,0.7,0.5,1.3,0.8,1.9
		c0.1,0.2,0.1,0.3,0.2,0.5c0,0.1,0,0.2,0,0.3c0,0.1-0.1,0.2-0.2,0.3c-0.1,0.1-0.2,0.1-0.2,0.2l-1.5,0.9c-0.5-0.8-1-1.6-1.3-2.4
		c-0.4-0.8-0.7-1.7-0.9-2.5c-0.2-0.8-0.4-1.7-0.5-2.6c-0.1-0.9-0.2-1.8-0.2-2.7c0-0.9,0.1-1.8,0.2-2.7c0.1-0.9,0.3-1.7,0.5-2.6
		c0.2-0.8,0.5-1.7,0.9-2.5c0.4-0.8,0.8-1.6,1.3-2.4l1.5,0.9c0.1,0.1,0.2,0.1,0.2,0.2c0.1,0.1,0.1,0.2,0.2,0.3c0,0.1,0.1,0.2,0,0.3
		c0,0.1-0.1,0.3-0.2,0.5c-0.3,0.6-0.5,1.2-0.8,1.9c-0.2,0.7-0.4,1.3-0.6,2c-0.2,0.7-0.3,1.4-0.4,2.1
		C934.5,178.4,934.5,179.1,934.5,179.8z"/>
	<path class="st27" d="M948.8,180.4v1.9c0,0.2-0.1,0.3-0.2,0.4c-0.1,0.1-0.3,0.2-0.5,0.2h-1v3.6h-2.9v-3.6h-6.2
		c-0.2,0-0.4-0.1-0.6-0.2c-0.2-0.1-0.3-0.3-0.3-0.5l-0.3-1.6l7.2-9.6h3.1v9.5H948.8z M944.4,180.4v-4c0-0.2,0-0.5,0-0.8
		c0-0.3,0-0.6,0.1-0.9l-4.1,5.7H944.4z"/>
	<path class="st27" d="M951.8,179.8c0-0.7,0-1.4-0.1-2.1s-0.2-1.4-0.4-2.1c-0.2-0.7-0.4-1.4-0.6-2s-0.5-1.3-0.8-1.9
		c-0.1-0.2-0.1-0.3-0.2-0.5c0-0.1,0-0.2,0-0.3c0-0.1,0.1-0.2,0.2-0.3c0.1-0.1,0.2-0.1,0.2-0.2l1.5-0.9c1,1.6,1.8,3.3,2.2,4.9
		c0.5,1.7,0.7,3.5,0.7,5.3c0,1.8-0.2,3.6-0.7,5.3c-0.5,1.7-1.2,3.3-2.2,4.9l-1.5-0.9c-0.1-0.1-0.2-0.1-0.2-0.2
		c-0.1-0.1-0.1-0.2-0.2-0.3c0-0.1-0.1-0.2,0-0.3c0-0.1,0.1-0.3,0.2-0.5c0.3-0.6,0.5-1.2,0.8-1.9c0.2-0.7,0.4-1.3,0.6-2
		c0.2-0.7,0.3-1.4,0.4-2.1S951.8,180.5,951.8,179.8z"/>
</g>
<g class="st26">
	<path class="st27" d="M817.6,238.7v15.5H814v-6.6h-6.3v6.6h-3.6v-15.5h3.6v6.5h6.3v-6.5H817.6z"/>
	<path class="st27" d="M822.6,249.2c0.1,0.9,0.4,1.6,0.8,2s1,0.6,1.8,0.6c0.4,0,0.7,0,1-0.1c0.3-0.1,0.5-0.2,0.7-0.3
		c0.2-0.1,0.4-0.2,0.6-0.3s0.4-0.1,0.6-0.1c0.3,0,0.5,0.1,0.6,0.3l1,1.2c-0.3,0.4-0.7,0.7-1.1,1c-0.4,0.2-0.8,0.4-1.2,0.6
		c-0.4,0.1-0.8,0.2-1.2,0.3c-0.4,0.1-0.8,0.1-1.2,0.1c-0.8,0-1.5-0.1-2.2-0.4c-0.7-0.3-1.3-0.6-1.8-1.1c-0.5-0.5-0.9-1.1-1.2-1.9
		c-0.3-0.7-0.4-1.6-0.4-2.6c0-0.7,0.1-1.4,0.4-2.1c0.3-0.7,0.6-1.2,1.1-1.7c0.5-0.5,1-0.9,1.7-1.2s1.4-0.4,2.3-0.4
		c0.7,0,1.4,0.1,2,0.3s1.1,0.6,1.6,1c0.4,0.4,0.8,1,1,1.6c0.2,0.6,0.4,1.3,0.4,2.1c0,0.2,0,0.5,0,0.6s-0.1,0.3-0.1,0.4
		c-0.1,0.1-0.1,0.2-0.2,0.2c-0.1,0-0.2,0.1-0.4,0.1H822.6z M826.8,247.3c0-0.3,0-0.5-0.1-0.8s-0.2-0.5-0.3-0.7
		c-0.2-0.2-0.4-0.4-0.6-0.5c-0.2-0.1-0.5-0.2-0.9-0.2c-0.6,0-1.1,0.2-1.5,0.5c-0.4,0.4-0.6,0.9-0.7,1.5H826.8z"/>
	<path class="st27" d="M835.1,240.1c0,0.3-0.1,0.5-0.2,0.7s-0.3,0.4-0.4,0.6c-0.2,0.2-0.4,0.3-0.6,0.4c-0.2,0.1-0.5,0.2-0.8,0.2
		c-0.3,0-0.5-0.1-0.8-0.2c-0.2-0.1-0.4-0.2-0.6-0.4s-0.3-0.4-0.4-0.6c-0.1-0.2-0.2-0.5-0.2-0.7c0-0.3,0.1-0.5,0.2-0.8
		c0.1-0.2,0.2-0.4,0.4-0.6c0.2-0.2,0.4-0.3,0.6-0.4c0.2-0.1,0.5-0.1,0.8-0.1c0.3,0,0.5,0,0.8,0.1c0.2,0.1,0.5,0.2,0.6,0.4
		c0.2,0.2,0.3,0.4,0.4,0.6C835,239.6,835.1,239.9,835.1,240.1z M834.7,243.1v11h-3.3v-11H834.7z"/>
	<path class="st27" d="M845.3,244.5c0,0.2,0,0.4-0.1,0.7c-0.1,0.2-0.2,0.4-0.3,0.5l-4.6,6.1h4.9v2.4h-8.7v-1.3c0-0.1,0-0.3,0.1-0.5
		c0.1-0.2,0.2-0.4,0.3-0.6l4.6-6.2h-4.8v-2.4h8.5V244.5z"/>
	<path class="st27" d="M850.3,238.2v8.9h0.5c0.2,0,0.4,0,0.5-0.1c0.1-0.1,0.2-0.2,0.3-0.3l2.1-3.1c0.1-0.2,0.3-0.3,0.4-0.4
		s0.4-0.1,0.6-0.1h3l-2.9,3.9c-0.3,0.4-0.6,0.6-1,0.9c0.2,0.1,0.3,0.3,0.4,0.4c0.1,0.2,0.3,0.3,0.4,0.5l3.1,5.3h-3
		c-0.2,0-0.5,0-0.6-0.1c-0.2-0.1-0.3-0.2-0.4-0.4l-2.1-3.9c-0.1-0.2-0.2-0.3-0.3-0.3c-0.1-0.1-0.3-0.1-0.5-0.1h-0.6v4.9H847v-15.9
		H850.3z"/>
	<path class="st27" d="M863.4,243c0.8,0,1.6,0.1,2.3,0.4c0.7,0.3,1.3,0.6,1.8,1.1c0.5,0.5,0.9,1.1,1.1,1.8c0.3,0.7,0.4,1.5,0.4,2.4
		c0,0.9-0.1,1.7-0.4,2.4c-0.3,0.7-0.7,1.3-1.1,1.8c-0.5,0.5-1.1,0.9-1.8,1.1c-0.7,0.3-1.5,0.4-2.3,0.4c-0.8,0-1.6-0.1-2.3-0.4
		s-1.3-0.6-1.8-1.1c-0.5-0.5-0.9-1.1-1.2-1.8c-0.3-0.7-0.4-1.5-0.4-2.4c0-0.9,0.1-1.7,0.4-2.4c0.3-0.7,0.7-1.3,1.2-1.8
		s1.1-0.9,1.8-1.1C861.8,243.1,862.6,243,863.4,243z M862.9,240.4c0,0.2,0,0.4-0.1,0.6s-0.2,0.4-0.4,0.5c-0.2,0.1-0.3,0.3-0.6,0.3
		s-0.4,0.1-0.7,0.1c-0.2,0-0.4,0-0.6-0.1s-0.4-0.2-0.5-0.3c-0.2-0.1-0.3-0.3-0.4-0.5c-0.1-0.2-0.1-0.4-0.1-0.6c0-0.2,0-0.5,0.1-0.7
		c0.1-0.2,0.2-0.4,0.4-0.5c0.2-0.2,0.3-0.3,0.5-0.4s0.4-0.1,0.6-0.1c0.2,0,0.5,0,0.7,0.1s0.4,0.2,0.6,0.4c0.2,0.2,0.3,0.3,0.4,0.5
		S862.9,240.2,862.9,240.4z M863.4,251.9c0.8,0,1.3-0.3,1.7-0.8c0.4-0.5,0.5-1.3,0.5-2.4s-0.2-1.9-0.5-2.4c-0.4-0.5-0.9-0.8-1.7-0.8
		c-0.8,0-1.4,0.3-1.7,0.8c-0.4,0.5-0.5,1.3-0.5,2.4s0.2,1.9,0.5,2.4C862.1,251.6,862.7,251.9,863.4,251.9z M867.4,240.4
		c0,0.2,0,0.4-0.1,0.6c-0.1,0.2-0.2,0.4-0.4,0.5c-0.2,0.1-0.3,0.3-0.5,0.3s-0.4,0.1-0.7,0.1c-0.2,0-0.5,0-0.7-0.1
		c-0.2-0.1-0.4-0.2-0.5-0.3c-0.2-0.1-0.3-0.3-0.4-0.5c-0.1-0.2-0.1-0.4-0.1-0.6c0-0.2,0-0.5,0.1-0.7c0.1-0.2,0.2-0.4,0.4-0.5
		c0.2-0.2,0.3-0.3,0.5-0.4c0.2-0.1,0.4-0.1,0.7-0.1c0.2,0,0.5,0,0.7,0.1s0.4,0.2,0.5,0.4c0.2,0.2,0.3,0.3,0.4,0.5
		C867.4,239.9,867.4,240.2,867.4,240.4z"/>
	<path class="st27" d="M873.8,244.8c0.3-0.6,0.7-1.1,1.2-1.4c0.4-0.3,1-0.5,1.5-0.5c0.5,0,0.9,0.1,1.2,0.4l-0.2,2.4
		c0,0.2-0.1,0.3-0.2,0.3c-0.1,0.1-0.2,0.1-0.3,0.1c-0.1,0-0.1,0-0.2,0c-0.1,0-0.2,0-0.3,0c-0.1,0-0.2,0-0.3,0s-0.2,0-0.3,0
		c-0.5,0-0.9,0.1-1.2,0.4c-0.3,0.3-0.5,0.6-0.7,1.1v6.7h-3.3v-11h2c0.2,0,0.3,0,0.4,0c0.1,0,0.2,0.1,0.3,0.1
		c0.1,0.1,0.1,0.1,0.2,0.2c0,0.1,0.1,0.2,0.1,0.4L873.8,244.8z"/>
	<path class="st27" d="M881.9,244.5c0.4-0.5,0.9-0.8,1.5-1.1s1.2-0.4,2-0.4c0.6,0,1.1,0.1,1.6,0.4c0.5,0.3,0.9,0.6,1.3,1.1
		s0.6,1.1,0.8,1.8c0.2,0.7,0.3,1.5,0.3,2.4c0,0.8-0.1,1.6-0.3,2.3c-0.2,0.7-0.6,1.3-1,1.8s-0.9,0.9-1.5,1.2
		c-0.6,0.3-1.2,0.4-1.9,0.4c-0.6,0-1.1-0.1-1.4-0.2c-0.4-0.2-0.7-0.4-1.1-0.7v4.2h-3.3v-14.5h2c0.4,0,0.7,0.2,0.8,0.6L881.9,244.5z
		 M882.1,251.2c0.2,0.3,0.5,0.5,0.8,0.6c0.3,0.1,0.6,0.2,0.9,0.2c0.3,0,0.6-0.1,0.8-0.2c0.3-0.1,0.5-0.3,0.7-0.6
		c0.2-0.3,0.3-0.6,0.4-1c0.1-0.4,0.2-0.9,0.2-1.6c0-0.6,0-1.1-0.1-1.5c-0.1-0.4-0.2-0.7-0.4-1c-0.2-0.2-0.3-0.4-0.5-0.5
		s-0.5-0.2-0.7-0.2c-0.5,0-0.9,0.1-1.2,0.3c-0.3,0.2-0.6,0.4-0.9,0.8V251.2z"/>
	<path class="st27" d="M893.8,249.2c0.1,0.9,0.4,1.6,0.8,2s1,0.6,1.8,0.6c0.4,0,0.7,0,1-0.1c0.3-0.1,0.5-0.2,0.7-0.3
		c0.2-0.1,0.4-0.2,0.6-0.3s0.4-0.1,0.6-0.1c0.3,0,0.5,0.1,0.6,0.3l1,1.2c-0.3,0.4-0.7,0.7-1.1,1c-0.4,0.2-0.8,0.4-1.2,0.6
		c-0.4,0.1-0.8,0.2-1.2,0.3c-0.4,0.1-0.8,0.1-1.2,0.1c-0.8,0-1.5-0.1-2.2-0.4c-0.7-0.3-1.3-0.6-1.8-1.1c-0.5-0.5-0.9-1.1-1.2-1.9
		c-0.3-0.7-0.4-1.6-0.4-2.6c0-0.7,0.1-1.4,0.4-2.1c0.3-0.7,0.6-1.2,1.1-1.7c0.5-0.5,1-0.9,1.7-1.2s1.4-0.4,2.3-0.4
		c0.7,0,1.4,0.1,2,0.3s1.1,0.6,1.6,1c0.4,0.4,0.8,1,1,1.6c0.2,0.6,0.4,1.3,0.4,2.1c0,0.2,0,0.5,0,0.6s-0.1,0.3-0.1,0.4
		c-0.1,0.1-0.1,0.2-0.2,0.2c-0.1,0-0.2,0.1-0.4,0.1H893.8z M897.9,247.3c0-0.3,0-0.5-0.1-0.8s-0.2-0.5-0.3-0.7
		c-0.2-0.2-0.4-0.4-0.6-0.5c-0.2-0.1-0.5-0.2-0.9-0.2c-0.6,0-1.1,0.2-1.5,0.5c-0.4,0.4-0.6,0.9-0.7,1.5H897.9z"/>
	<path class="st27" d="M905.6,244.8c0.3-0.6,0.7-1.1,1.2-1.4c0.4-0.3,1-0.5,1.5-0.5c0.5,0,0.9,0.1,1.2,0.4l-0.2,2.4
		c0,0.2-0.1,0.3-0.2,0.3c-0.1,0.1-0.2,0.1-0.3,0.1c-0.1,0-0.1,0-0.2,0c-0.1,0-0.2,0-0.3,0c-0.1,0-0.2,0-0.3,0c-0.1,0-0.2,0-0.3,0
		c-0.5,0-0.9,0.1-1.2,0.4c-0.3,0.3-0.5,0.6-0.7,1.1v6.7h-3.3v-11h2c0.2,0,0.3,0,0.4,0s0.2,0.1,0.3,0.1c0.1,0.1,0.1,0.1,0.2,0.2
		c0,0.1,0.1,0.2,0.1,0.4L905.6,244.8z"/>
	<path class="st27" d="M917.5,247.5c0,0.7,0,1.4,0.1,2.1c0.1,0.7,0.2,1.4,0.4,2.1c0.2,0.7,0.4,1.4,0.6,2c0.2,0.7,0.5,1.3,0.8,1.9
		c0.1,0.2,0.1,0.3,0.2,0.5c0,0.1,0,0.2,0,0.3c0,0.1-0.1,0.2-0.2,0.3c-0.1,0.1-0.2,0.1-0.2,0.2l-1.5,0.9c-0.5-0.8-1-1.6-1.3-2.4
		c-0.4-0.8-0.7-1.7-0.9-2.5c-0.2-0.8-0.4-1.7-0.5-2.6c-0.1-0.9-0.2-1.8-0.2-2.7c0-0.9,0.1-1.8,0.2-2.7c0.1-0.9,0.3-1.7,0.5-2.6
		c0.2-0.8,0.5-1.7,0.9-2.5c0.4-0.8,0.8-1.6,1.3-2.4l1.5,0.9c0.1,0.1,0.2,0.1,0.2,0.2c0.1,0.1,0.1,0.2,0.2,0.3c0,0.1,0.1,0.2,0,0.3
		c0,0.1-0.1,0.3-0.2,0.5c-0.3,0.6-0.5,1.2-0.8,1.9s-0.4,1.3-0.6,2c-0.2,0.7-0.3,1.4-0.4,2.1C917.5,246.1,917.5,246.8,917.5,247.5z"
		/>
	<path class="st27" d="M925.6,244.6c0.5-0.2,1-0.3,1.7-0.3c0.6,0,1.1,0.1,1.7,0.3c0.5,0.2,1,0.5,1.5,0.9s0.8,0.9,1,1.5
		s0.4,1.3,0.4,2.1c0,0.7-0.1,1.4-0.4,2.1s-0.7,1.2-1.1,1.7c-0.5,0.5-1.1,0.9-1.8,1.2c-0.7,0.3-1.5,0.4-2.3,0.4
		c-0.9,0-1.6-0.1-2.3-0.4c-0.7-0.3-1.3-0.7-1.8-1.1s-0.8-1.1-1.1-1.8s-0.4-1.4-0.4-2.2c0-1.5,0.6-3.1,1.8-4.6l3.5-4.7
		c0.2-0.2,0.4-0.4,0.7-0.5c0.3-0.1,0.7-0.2,1.1-0.2h2.9l-4.6,5.5L925.6,244.6z M926.1,251.7c0.3,0,0.7-0.1,1-0.2
		c0.3-0.1,0.5-0.3,0.8-0.5c0.2-0.2,0.4-0.5,0.5-0.8c0.1-0.3,0.2-0.6,0.2-1c0-0.4-0.1-0.8-0.2-1.1c-0.1-0.3-0.3-0.6-0.5-0.8
		c-0.2-0.2-0.5-0.4-0.8-0.5c-0.3-0.1-0.6-0.2-1-0.2c-0.3,0-0.6,0.1-0.9,0.2s-0.5,0.3-0.7,0.5c-0.2,0.2-0.4,0.5-0.5,0.8
		c-0.1,0.3-0.2,0.6-0.2,1s0,0.7,0.1,1c0.1,0.3,0.2,0.6,0.4,0.8s0.4,0.4,0.7,0.5C925.4,251.7,925.7,251.7,926.1,251.7z"/>
	<path class="st27" d="M934.8,247.5c0-0.7,0-1.4-0.1-2.1c-0.1-0.7-0.2-1.4-0.4-2.1c-0.2-0.7-0.4-1.4-0.6-2c-0.2-0.7-0.5-1.3-0.8-1.9
		c-0.1-0.2-0.1-0.3-0.2-0.5c0-0.1,0-0.2,0-0.3c0-0.1,0.1-0.2,0.2-0.3c0.1-0.1,0.2-0.1,0.2-0.2l1.5-0.9c1,1.6,1.8,3.3,2.2,4.9
		c0.5,1.7,0.7,3.5,0.7,5.3c0,1.8-0.2,3.6-0.7,5.3c-0.5,1.7-1.2,3.3-2.2,4.9l-1.5-0.9c-0.1-0.1-0.2-0.1-0.2-0.2
		c-0.1-0.1-0.1-0.2-0.2-0.3c0-0.1-0.1-0.2,0-0.3c0-0.1,0.1-0.3,0.2-0.5c0.3-0.6,0.5-1.2,0.8-1.9c0.2-0.7,0.4-1.3,0.6-2
		c0.2-0.7,0.3-1.4,0.4-2.1C934.8,248.9,934.8,248.2,934.8,247.5z"/>
</g>
<g class="st26">
	<path class="st27" d="M827.5,455.1v15.5h-3.6V464h-6.3v6.6H814v-15.5h3.6v6.5h6.3v-6.5H827.5z"/>
	<path class="st27" d="M832.5,465.7c0.1,0.9,0.4,1.6,0.8,2s1,0.6,1.8,0.6c0.4,0,0.7,0,1-0.1c0.3-0.1,0.5-0.2,0.7-0.3
		c0.2-0.1,0.4-0.2,0.6-0.3s0.4-0.1,0.6-0.1c0.3,0,0.5,0.1,0.6,0.3l1,1.2c-0.3,0.4-0.7,0.7-1.1,1c-0.4,0.2-0.8,0.4-1.2,0.6
		c-0.4,0.1-0.8,0.2-1.2,0.3c-0.4,0.1-0.8,0.1-1.2,0.1c-0.8,0-1.5-0.1-2.2-0.4c-0.7-0.3-1.3-0.6-1.8-1.1c-0.5-0.5-0.9-1.1-1.2-1.9
		c-0.3-0.7-0.4-1.6-0.4-2.6c0-0.7,0.1-1.4,0.4-2.1c0.3-0.7,0.6-1.2,1.1-1.7c0.5-0.5,1-0.9,1.7-1.2s1.4-0.4,2.3-0.4
		c0.7,0,1.4,0.1,2,0.3s1.1,0.6,1.6,1c0.4,0.4,0.8,1,1,1.6c0.2,0.6,0.4,1.3,0.4,2.1c0,0.2,0,0.5,0,0.6s-0.1,0.3-0.1,0.4
		c-0.1,0.1-0.1,0.2-0.2,0.2c-0.1,0-0.2,0.1-0.4,0.1H832.5z M836.7,463.8c0-0.3,0-0.5-0.1-0.8s-0.2-0.5-0.3-0.7
		c-0.2-0.2-0.4-0.4-0.6-0.5c-0.2-0.1-0.5-0.2-0.9-0.2c-0.6,0-1.1,0.2-1.5,0.5c-0.4,0.4-0.6,0.9-0.7,1.5H836.7z"/>
	<path class="st27" d="M845,456.5c0,0.3-0.1,0.5-0.2,0.7s-0.3,0.4-0.4,0.6c-0.2,0.2-0.4,0.3-0.6,0.4c-0.2,0.1-0.5,0.2-0.8,0.2
		c-0.3,0-0.5-0.1-0.8-0.2c-0.2-0.1-0.4-0.2-0.6-0.4s-0.3-0.4-0.4-0.6c-0.1-0.2-0.2-0.5-0.2-0.7c0-0.3,0.1-0.5,0.2-0.8
		c0.1-0.2,0.2-0.4,0.4-0.6c0.2-0.2,0.4-0.3,0.6-0.4c0.2-0.1,0.5-0.1,0.8-0.1c0.3,0,0.5,0,0.8,0.1c0.2,0.1,0.5,0.2,0.6,0.4
		c0.2,0.2,0.3,0.4,0.4,0.6C844.9,456,845,456.3,845,456.5z M844.6,459.6v11h-3.3v-11H844.6z"/>
	<path class="st27" d="M855.1,460.9c0,0.2,0,0.4-0.1,0.7c-0.1,0.2-0.2,0.4-0.3,0.5l-4.6,6.1h4.9v2.4h-8.7v-1.3c0-0.1,0-0.3,0.1-0.5
		c0.1-0.2,0.2-0.4,0.3-0.6l4.6-6.2h-4.8v-2.4h8.5V460.9z"/>
	<path class="st27" d="M860.2,454.7v8.9h0.5c0.2,0,0.4,0,0.5-0.1c0.1-0.1,0.2-0.2,0.3-0.3l2.1-3.1c0.1-0.2,0.3-0.3,0.4-0.4
		s0.4-0.1,0.6-0.1h3l-2.9,3.9c-0.3,0.4-0.6,0.6-1,0.9c0.2,0.1,0.3,0.3,0.4,0.4c0.1,0.2,0.3,0.3,0.4,0.5l3.1,5.3h-3
		c-0.2,0-0.5,0-0.6-0.1c-0.2-0.1-0.3-0.2-0.4-0.4l-2.1-3.9c-0.1-0.2-0.2-0.3-0.3-0.3c-0.1-0.1-0.3-0.1-0.5-0.1h-0.6v4.9h-3.3v-15.9
		H860.2z"/>
	<path class="st27" d="M871,465.7c0.1,0.9,0.4,1.6,0.8,2c0.5,0.4,1,0.6,1.8,0.6c0.4,0,0.7,0,1-0.1c0.3-0.1,0.5-0.2,0.7-0.3
		c0.2-0.1,0.4-0.2,0.6-0.3s0.4-0.1,0.6-0.1c0.3,0,0.5,0.1,0.6,0.3l1,1.2c-0.3,0.4-0.7,0.7-1.1,1c-0.4,0.2-0.8,0.4-1.2,0.6
		c-0.4,0.1-0.8,0.2-1.2,0.3c-0.4,0.1-0.8,0.1-1.2,0.1c-0.8,0-1.5-0.1-2.2-0.4c-0.7-0.3-1.3-0.6-1.8-1.1c-0.5-0.5-0.9-1.1-1.2-1.9
		c-0.3-0.7-0.4-1.6-0.4-2.6c0-0.7,0.1-1.4,0.4-2.1c0.3-0.7,0.6-1.2,1.1-1.7s1-0.9,1.7-1.2s1.4-0.4,2.3-0.4c0.7,0,1.4,0.1,2,0.3
		c0.6,0.2,1.1,0.6,1.6,1c0.4,0.4,0.8,1,1,1.6c0.2,0.6,0.4,1.3,0.4,2.1c0,0.2,0,0.5,0,0.6c0,0.2-0.1,0.3-0.1,0.4
		c-0.1,0.1-0.1,0.2-0.2,0.2c-0.1,0-0.2,0.1-0.4,0.1H871z M875.1,463.8c0-0.3,0-0.5-0.1-0.8c-0.1-0.2-0.2-0.5-0.3-0.7
		c-0.2-0.2-0.4-0.4-0.6-0.5c-0.2-0.1-0.5-0.2-0.9-0.2c-0.6,0-1.1,0.2-1.5,0.5c-0.4,0.4-0.6,0.9-0.7,1.5H875.1z"/>
	<path class="st27" d="M886.7,462c-0.1,0.1-0.2,0.2-0.3,0.3s-0.2,0.1-0.4,0.1c-0.2,0-0.3,0-0.5-0.1s-0.3-0.1-0.5-0.2
		s-0.4-0.2-0.6-0.2c-0.2-0.1-0.5-0.1-0.8-0.1c-0.4,0-0.7,0.1-1,0.2c-0.2,0.2-0.3,0.4-0.3,0.7c0,0.2,0.1,0.4,0.2,0.5s0.3,0.3,0.6,0.4
		c0.2,0.1,0.5,0.2,0.8,0.3s0.6,0.2,0.9,0.3c0.3,0.1,0.6,0.2,0.9,0.4c0.3,0.2,0.6,0.3,0.8,0.6c0.2,0.2,0.4,0.5,0.6,0.8
		c0.1,0.3,0.2,0.7,0.2,1.1c0,0.5-0.1,1-0.3,1.5c-0.2,0.5-0.5,0.9-0.9,1.2s-0.9,0.6-1.5,0.8s-1.2,0.3-2,0.3c-0.4,0-0.8,0-1.1-0.1
		c-0.4-0.1-0.7-0.2-1.1-0.3c-0.4-0.1-0.7-0.3-1-0.4c-0.3-0.2-0.6-0.3-0.8-0.5l0.8-1.2c0.1-0.1,0.2-0.3,0.3-0.3
		c0.1-0.1,0.3-0.1,0.5-0.1c0.2,0,0.4,0,0.5,0.1s0.3,0.2,0.5,0.3c0.2,0.1,0.4,0.2,0.6,0.3c0.2,0.1,0.5,0.1,0.9,0.1
		c0.3,0,0.5,0,0.6-0.1c0.2-0.1,0.3-0.1,0.4-0.2c0.1-0.1,0.2-0.2,0.2-0.3s0.1-0.2,0.1-0.4c0-0.2-0.1-0.4-0.2-0.5
		c-0.1-0.1-0.3-0.3-0.6-0.4c-0.2-0.1-0.5-0.2-0.8-0.3s-0.6-0.2-0.9-0.3s-0.6-0.2-0.9-0.4c-0.3-0.2-0.6-0.4-0.8-0.6
		c-0.2-0.2-0.4-0.5-0.6-0.9c-0.1-0.4-0.2-0.8-0.2-1.3c0-0.5,0.1-0.9,0.3-1.3s0.5-0.8,0.8-1.1c0.4-0.3,0.8-0.6,1.4-0.8
		s1.2-0.3,1.9-0.3c0.4,0,0.8,0,1.2,0.1c0.4,0.1,0.7,0.2,1,0.3c0.3,0.1,0.6,0.3,0.9,0.5s0.5,0.4,0.7,0.6L886.7,462z"/>
	<path class="st27" d="M896.2,462c-0.1,0.1-0.2,0.2-0.3,0.3s-0.2,0.1-0.4,0.1c-0.2,0-0.3,0-0.5-0.1s-0.3-0.1-0.5-0.2
		s-0.4-0.2-0.6-0.2c-0.2-0.1-0.5-0.1-0.8-0.1c-0.4,0-0.7,0.1-1,0.2c-0.2,0.2-0.3,0.4-0.3,0.7c0,0.2,0.1,0.4,0.2,0.5s0.3,0.3,0.6,0.4
		c0.2,0.1,0.5,0.2,0.8,0.3s0.6,0.2,0.9,0.3c0.3,0.1,0.6,0.2,0.9,0.4c0.3,0.2,0.6,0.3,0.8,0.6c0.2,0.2,0.4,0.5,0.6,0.8
		c0.1,0.3,0.2,0.7,0.2,1.1c0,0.5-0.1,1-0.3,1.5c-0.2,0.5-0.5,0.9-0.9,1.2s-0.9,0.6-1.5,0.8s-1.2,0.3-2,0.3c-0.4,0-0.8,0-1.1-0.1
		c-0.4-0.1-0.7-0.2-1.1-0.3c-0.4-0.1-0.7-0.3-1-0.4c-0.3-0.2-0.6-0.3-0.8-0.5l0.8-1.2c0.1-0.1,0.2-0.3,0.3-0.3
		c0.1-0.1,0.3-0.1,0.5-0.1c0.2,0,0.4,0,0.5,0.1s0.3,0.2,0.5,0.3c0.2,0.1,0.4,0.2,0.6,0.3c0.2,0.1,0.5,0.1,0.9,0.1
		c0.3,0,0.5,0,0.6-0.1c0.2-0.1,0.3-0.1,0.4-0.2c0.1-0.1,0.2-0.2,0.2-0.3s0.1-0.2,0.1-0.4c0-0.2-0.1-0.4-0.2-0.5
		c-0.1-0.1-0.3-0.3-0.6-0.4c-0.2-0.1-0.5-0.2-0.8-0.3s-0.6-0.2-0.9-0.3s-0.6-0.2-0.9-0.4c-0.3-0.2-0.6-0.4-0.8-0.6
		c-0.2-0.2-0.4-0.5-0.6-0.9c-0.1-0.4-0.2-0.8-0.2-1.3c0-0.5,0.1-0.9,0.3-1.3s0.5-0.8,0.8-1.1c0.4-0.3,0.8-0.6,1.4-0.8
		s1.2-0.3,1.9-0.3c0.4,0,0.8,0,1.2,0.1c0.4,0.1,0.7,0.2,1,0.3c0.3,0.1,0.6,0.3,0.9,0.5s0.5,0.4,0.7,0.6L896.2,462z"/>
	<path class="st27" d="M901.4,465.7c0.1,0.9,0.4,1.6,0.8,2s1,0.6,1.8,0.6c0.4,0,0.7,0,1-0.1c0.3-0.1,0.5-0.2,0.7-0.3
		c0.2-0.1,0.4-0.2,0.6-0.3s0.4-0.1,0.6-0.1c0.3,0,0.5,0.1,0.6,0.3l1,1.2c-0.3,0.4-0.7,0.7-1.1,1c-0.4,0.2-0.8,0.4-1.2,0.6
		c-0.4,0.1-0.8,0.2-1.2,0.3c-0.4,0.1-0.8,0.1-1.2,0.1c-0.8,0-1.5-0.1-2.2-0.4c-0.7-0.3-1.3-0.6-1.8-1.1c-0.5-0.5-0.9-1.1-1.2-1.9
		c-0.3-0.7-0.4-1.6-0.4-2.6c0-0.7,0.1-1.4,0.4-2.1c0.3-0.7,0.6-1.2,1.1-1.7c0.5-0.5,1-0.9,1.7-1.2s1.4-0.4,2.3-0.4
		c0.7,0,1.4,0.1,2,0.3s1.1,0.6,1.6,1c0.4,0.4,0.8,1,1,1.6c0.2,0.6,0.4,1.3,0.4,2.1c0,0.2,0,0.5,0,0.6s-0.1,0.3-0.1,0.4
		c-0.1,0.1-0.1,0.2-0.2,0.2c-0.1,0-0.2,0.1-0.4,0.1H901.4z M905.5,463.8c0-0.3,0-0.5-0.1-0.8s-0.2-0.5-0.3-0.7
		c-0.2-0.2-0.4-0.4-0.6-0.5c-0.2-0.1-0.5-0.2-0.9-0.2c-0.6,0-1.1,0.2-1.5,0.5c-0.4,0.4-0.6,0.9-0.7,1.5H905.5z"/>
	<path class="st27" d="M913.4,454.7v15.9h-3.3v-15.9H913.4z"/>
	<path class="st27" d="M922.9,463.9c0,0.7,0,1.4,0.1,2.1c0.1,0.7,0.2,1.4,0.4,2.1c0.2,0.7,0.4,1.4,0.6,2c0.2,0.7,0.5,1.3,0.8,1.9
		c0.1,0.2,0.1,0.3,0.2,0.5c0,0.1,0,0.2,0,0.3c0,0.1-0.1,0.2-0.2,0.3c-0.1,0.1-0.2,0.1-0.2,0.2l-1.5,0.9c-0.5-0.8-1-1.6-1.3-2.4
		c-0.4-0.8-0.7-1.7-0.9-2.5c-0.2-0.8-0.4-1.7-0.5-2.6c-0.1-0.9-0.2-1.8-0.2-2.7c0-0.9,0.1-1.8,0.2-2.7c0.1-0.9,0.3-1.7,0.5-2.6
		c0.2-0.8,0.5-1.7,0.9-2.5c0.4-0.8,0.8-1.6,1.3-2.4l1.5,0.9c0.1,0.1,0.2,0.1,0.2,0.2c0.1,0.1,0.1,0.2,0.2,0.3c0,0.1,0.1,0.2,0,0.3
		c0,0.1-0.1,0.3-0.2,0.5c-0.3,0.6-0.5,1.2-0.8,1.9s-0.4,1.3-0.6,2c-0.2,0.7-0.3,1.4-0.4,2.1C923,462.5,922.9,463.2,922.9,463.9z"/>
	<path class="st27" d="M930.2,460.6c0.3-0.1,0.6-0.1,0.8-0.1s0.5,0,0.8,0c0.8,0,1.5,0.1,2.2,0.4c0.6,0.2,1.1,0.6,1.6,1
		c0.4,0.4,0.7,0.9,1,1.5c0.2,0.6,0.3,1.2,0.3,1.9c0,0.8-0.1,1.6-0.4,2.3c-0.3,0.7-0.7,1.3-1.2,1.8s-1.2,0.9-1.9,1.2
		c-0.7,0.3-1.5,0.4-2.4,0.4c-0.5,0-1-0.1-1.4-0.2c-0.5-0.1-0.9-0.2-1.3-0.4c-0.4-0.2-0.8-0.4-1.1-0.6c-0.3-0.2-0.6-0.5-0.9-0.8
		l1-1.4c0.1-0.1,0.2-0.2,0.4-0.3c0.1-0.1,0.3-0.1,0.5-0.1c0.2,0,0.4,0.1,0.6,0.2s0.4,0.2,0.6,0.4c0.2,0.1,0.5,0.3,0.8,0.4
		s0.7,0.2,1.1,0.2s0.8-0.1,1.1-0.2c0.3-0.1,0.6-0.3,0.8-0.6c0.2-0.3,0.3-0.5,0.4-0.9c0.1-0.3,0.1-0.7,0.1-1.1c0-0.8-0.2-1.3-0.6-1.7
		s-1-0.6-1.8-0.6c-0.7,0-1.4,0.1-2,0.4l-2-0.6l1.3-7.8h7.9v1.4c0,0.2,0,0.4-0.1,0.6s-0.2,0.3-0.3,0.5c-0.2,0.1-0.4,0.2-0.6,0.3
		c-0.2,0.1-0.5,0.1-0.9,0.1h-3.7L930.2,460.6z"/>
	<path class="st27" d="M940.3,463.9c0-0.7,0-1.4-0.1-2.1c-0.1-0.7-0.2-1.4-0.4-2.1c-0.2-0.7-0.4-1.4-0.6-2c-0.2-0.7-0.5-1.3-0.8-1.9
		c-0.1-0.2-0.1-0.3-0.2-0.5c0-0.1,0-0.2,0-0.3c0-0.1,0.1-0.2,0.2-0.3c0.1-0.1,0.2-0.1,0.2-0.2l1.5-0.9c1,1.6,1.8,3.3,2.2,4.9
		c0.5,1.7,0.7,3.5,0.7,5.3c0,1.8-0.2,3.6-0.7,5.3c-0.5,1.7-1.2,3.3-2.2,4.9l-1.5-0.9c-0.1-0.1-0.2-0.1-0.2-0.2
		c-0.1-0.1-0.1-0.2-0.2-0.3c0-0.1-0.1-0.2,0-0.3c0-0.1,0.1-0.3,0.2-0.5c0.3-0.6,0.5-1.2,0.8-1.9c0.2-0.7,0.4-1.3,0.6-2
		c0.2-0.7,0.3-1.4,0.4-2.1C940.2,465.3,940.3,464.6,940.3,463.9z"/>
</g>
</svg>
