<?xml version="1.0" encoding="UTF-8"?>
<svg id="Ebene_1" data-name="Ebene 1" xmlns="http://www.w3.org/2000/svg" viewBox="0 0 88.14 54.61">
  <defs>
    <style>
      .cls-1, .cls-2 {
        stroke-width: 0px;
      }

      .cls-2 {
        fill: #f69800;
      }
    </style>
  </defs>
  <path class="cls-1" d="M19.66,52.46c-.81,0-1.18-.18-1.18-1.14v-1.17h1.29v.75c0,.31.06.32.33.32h2.1c.27,0,.33-.01.33-.32v-1.38c0-.31-.07-.32-.33-.32h-2.55c-.81,0-1.18-.18-1.18-1.14v-2.22c0-.96.38-1.14,1.18-1.14h2.98c.81,0,1.18.18,1.18,1.14v1.17h-1.29v-.75c0-.31-.06-.32-.33-.32h-2.1c-.27,0-.33,0-.33.32v1.39c0,.31.06.32.33.32h2.55c.81,0,1.18.18,1.18,1.14v2.21c0,.96-.38,1.14-1.18,1.14h-2.98Z"/>
  <path class="cls-1" d="M26.18,52.46c-.81,0-1.18-.18-1.18-1.14v-3.63c0-.96.38-1.14,1.18-1.14h2.61c.81,0,1.18.18,1.18,1.14v3.63c0,.96-.38,1.14-1.18,1.14h-2.61ZM28.69,48.11c0-.31-.06-.32-.33-.32h-1.73c-.27,0-.33.01-.33.32v2.8c0,.31.06.32.33.32h1.73c.27,0,.33,0,.33-.32v-2.8Z"/>
  <path class="cls-1" d="M32.34,52.46c-.81,0-1.18-.18-1.18-1.14v-7.46h1.29v7.04c0,.31.06.32.33.32h.71v1.24h-1.15Z"/>
  <path class="cls-1" d="M35.29,52.46c-.81,0-1.18-.18-1.18-1.14v-1.42c0-.96.38-1.14,1.18-1.14h2.51v-.66c0-.31-.06-.32-.33-.32h-3.24v-1.24h3.68c.81,0,1.18.18,1.18,1.14v3.63c0,.96-.38,1.14-1.18,1.14h-2.61ZM37.79,50h-2.06c-.27,0-.33.01-.33.32v.58c0,.31.06.32.33.32h1.73c.27,0,.33-.01.33-.32v-.9Z"/>
  <path class="cls-1" d="M40.26,52.46v-4.77c0-.96.38-1.14,1.18-1.14h2.42v1.24h-1.98c-.27,0-.33.01-.33.32v4.35h-1.29Z"/>
  <path class="cls-1" d="M48.6,52.46l-1.67-2.98h-.91v2.98h-1.29v-7.76h4.07c.81,0,1.18.18,1.18,1.14v2.5c0,.96-.38,1.14-1.18,1.14h-.52l1.67,2.98h-1.34ZM48.69,46.26c0-.31-.06-.32-.33-.32h-2.33v2.31h2.33c.3,0,.33-.01.33-.31v-1.68Z"/>
  <path class="cls-1" d="M52.27,52.46c-.81,0-1.18-.18-1.18-1.14v-3.63c0-.96.38-1.14,1.18-1.14h2.61c.81,0,1.18.18,1.18,1.14v1.34c0,.96-.38,1.14-1.18,1.14h-2.51v.73c0,.31.06.32.33.32h3.12v1.24h-3.56ZM54.78,48.11c0-.31-.06-.32-.33-.32h-1.73c-.27,0-.33.01-.33.32v.83h2.06c.27,0,.33-.01.33-.32v-.51Z"/>
  <path class="cls-1" d="M57.38,54.61v-1.24h3.07c.27,0,.33,0,.33-.32v-.59h-2.51c-.81,0-1.18-.18-1.18-1.14v-3.63c0-.96.38-1.14,1.18-1.14h2.61c.81,0,1.18.18,1.18,1.14v5.78c0,.96-.38,1.14-1.18,1.14h-3.52ZM60.79,48.11c0-.31-.06-.32-.33-.32h-1.73c-.27,0-.33.01-.33.32v2.8c0,.31.06.32.33.32h2.06v-3.12Z"/>
  <path class="cls-1" d="M63.75,52.46v-4.68h-.96v-1.24h2.25v5.91h-1.29ZM63.75,44.7h1.29v1.24h-1.29v-1.24Z"/>
  <path class="cls-1" d="M69.92,52.46v-4.35c0-.31-.06-.32-.33-.32h-1.73c-.27,0-.33.01-.33.32v4.35h-1.29v-4.77c0-.96.38-1.14,1.18-1.14h2.61c.81,0,1.18.18,1.18,1.14v4.77h-1.29Z"/>
  <path class="cls-1" d="M73.48,52.46c-.81,0-1.18-.18-1.18-1.14v-1.42c0-.96.38-1.14,1.18-1.14h2.51v-.66c0-.31-.06-.32-.33-.32h-3.24v-1.24h3.68c.81,0,1.18.18,1.18,1.14v3.63c0,.96-.38,1.14-1.18,1.14h-2.61ZM75.98,50h-2.06c-.27,0-.33.01-.33.32v.58c0,.31.06.32.33.32h1.73c.27,0,.33-.01.33-.32v-.9Z"/>
  <polygon class="cls-2" points="6.69 38.34 41.55 10.7 37.93 6.14 26.16 15.47 27.96 .65 22.04 0 20.24 14.82 11.02 3.19 6.33 6.91 15.55 18.54 .72 16.91 0 22.82 14.84 24.45 3.07 33.78 6.69 38.34"/>
  <polygon class="cls-1" points="11.05 48.26 6.37 42.37 46.7 10.32 88.14 42.23 83.54 48.2 46.77 19.88 11.05 48.26"/>
</svg>