<?xml version="1.0" encoding="utf-8"?>
<!-- Generator: Adobe Illustrator 28.1.0, SVG Export Plug-In . SVG Version: 6.00 Build 0)  -->
<svg version="1.1" id="Ebene_1" xmlns="http://www.w3.org/2000/svg" xmlns:xlink="http://www.w3.org/1999/xlink" x="0px" y="0px"
	 viewBox="0 0 120 120" style="enable-background:new 0 0 120 120;" xml:space="preserve">
<style type="text/css">
	.st0{fill:#F69800;}
</style>
<g>
	<g>
		<path class="st0" d="M94.89,90c0,1.12,0,2.1,0,3.08c0,4.88,0,9.77,0,14.65c0,1.6-0.54,2.14-2.13,2.15c-1.12,0.01-2.24,0.01-3.36,0
			c-1.58-0.01-2.11-0.54-2.12-2.15c-0.01-5.46,0-10.92,0-16.38c0-0.4,0-0.8,0-1.32c-0.91,0-1.78-0.2-2.48,0.06
			c-0.55,0.2-1.1,0.91-1.29,1.5c-0.89,2.7-1.66,5.44-2.46,8.17c-0.82,2.79-1.64,5.59-2.46,8.38c-0.42,1.43-0.83,1.74-2.32,1.74
			c-10.65,0-21.29,0-31.94,0c-1.54,0-1.91-0.29-2.36-1.81c-1.54-5.23-3.08-10.46-4.62-15.68c-0.73-2.47-0.92-2.61-4.06-2.24
			c0,0.38,0,0.78,0,1.17c0,5.43,0,10.85,0,16.28c0,1.8-0.49,2.28-2.29,2.28c-1.05,0-2.1,0-3.15,0c-1.61-0.01-2.15-0.54-2.15-2.12
			c0-5.49,0-10.99,0-16.48c0-0.37,0-0.74,0-1.27c-0.41,0-0.77,0-1.13,0c-2.14,0-4.27,0.02-6.41,0c-4.88-0.05-8.31-3.49-8.32-8.36
			c-0.01-7.66,0-15.33,0-22.99c0-0.17-0.01-0.34,0.01-0.51c0.08-0.98,0.71-1.6,1.63-1.6c0.92,0,1.58,0.62,1.61,1.61
			c0.04,1.42,0.01,2.85,0.01,4.27c0,6.34,0,12.68,0,19.02c0,3.35,1.95,5.29,5.31,5.3c1.04,0,2.09,0,3.33,0
			c-0.29-0.32-0.45-0.52-0.62-0.68c-3.33-3.11-4.94-6.96-4.94-11.51c0-5.7,0.03-11.39-0.01-17.09c-0.02-2.28,0.56-4.28,2.34-5.95
			c-2.63-2.04-4.04-4.62-3.61-8c0.28-2.19,1.3-3.98,3.02-5.35c3.46-2.76,8.48-2.25,11.34,1.11c2.55,3,3.17,8.44-1.45,12
			c0.66,1.45,1.68,2.8,1.81,4.24c0.16,1.7,1.04,2.38,2.24,3.2c1.4,0.96,2.8,1.4,4.52,1.35c4.03-0.11,8.07-0.04,12.1-0.04
			c3.91,0,6,2.47,5.37,6.31c-0.01,0.06,0.03,0.13,0.05,0.26c4.27,0,8.56,0,12.92,0c-0.05-0.3-0.1-0.56-0.14-0.82
			c-0.47-3.02,1.78-5.72,4.85-5.74c4.61-0.03,9.22-0.03,13.83,0.01c0.92,0.01,1.73-0.13,2.45-0.73c0.21-0.17,0.45-0.31,0.68-0.44
			c1.37-0.79,2.53-1.53,2.59-3.53c0.04-1.34,1.13-2.65,1.79-4.05c-4.2-4.08-4.63-8.98-0.94-12.58c3.27-3.19,8.56-3.07,11.68,0.24
			c2.88,3.04,3.5,8.74-1.44,12.53c1.13,1.16,1.99,2.48,2.18,4.12c0.07,0.57,0.11,1.15,0.11,1.72c0.01,5.32-0.09,10.65,0.03,15.97
			c0.12,5.25-1.42,9.74-5.45,13.34c2.05-0.05,4.15,0.58,6.09-0.56c1.66-0.98,2.42-2.49,2.41-4.41c0-7.56,0-15.12,0-22.68
			c0-0.31-0.02-0.61,0.01-0.92c0.08-0.92,0.71-1.52,1.58-1.53c0.92-0.02,1.57,0.6,1.65,1.57c0.02,0.24,0.01,0.47,0.01,0.71
			c0,7.53,0,15.06,0,22.58c0,5.19-3.4,8.58-8.6,8.6C99.78,90,97.41,90,94.89,90z M49.93,74.7c-0.02,0.26-0.04,0.46-0.04,0.65
			c0,7.15,0,14.3,0.01,21.45c0,0.36,0.07,0.74,0.17,1.09c0.77,2.63,1.57,5.25,2.33,7.88c0.17,0.6,0.42,0.86,1.11,0.85
			c4.54-0.04,9.08-0.03,13.62,0c0.62,0,0.88-0.2,1.05-0.79c0.73-2.54,1.52-5.05,2.25-7.59c0.17-0.61,0.27-1.26,0.27-1.89
			c0.02-6.85,0.01-13.69,0.01-20.54c0-0.36,0-0.72,0-1.12C63.73,74.7,56.89,74.7,49.93,74.7z M26.27,55.67
			c-0.38-1.67-1.85-2.69-3.64-2.57c-1.75,0.12-3.19,1.6-3.2,3.48c-0.03,6.27-0.11,12.55,0.04,18.82c0.13,5.62,4.2,10.21,9.77,11.12
			c1.95,0.32,3.99,0.22,5.98,0.2c2.28-0.02,3.8,1.04,4.68,3.07c0.27,0.62,0.47,1.27,0.66,1.92c1.38,4.67,2.74,9.35,4.14,14.02
			c0.1,0.34,0.47,0.81,0.75,0.83c1.21,0.09,2.43,0.04,3.76,0.04c-0.11-0.41-0.18-0.73-0.27-1.04c-1.32-4.44-2.64-8.89-3.98-13.33
			c-0.82-2.73-1.77-5.41-3.34-7.82c-1.55-2.37-3.58-4.09-6.44-4.55c-1.26-0.21-2.56-0.17-3.85-0.23c-2.89-0.13-4.79-2.07-4.81-4.96
			c-0.01-2.27-0.03-4.54,0.01-6.81c0.01-0.67-0.2-1.04-0.77-1.37c-0.99-0.58-1.98-1.19-2.89-1.88c-1.62-1.23-2.33-2.89-1.92-4.91
			c0.42-2.06,1.71-3.34,3.73-3.86C25.19,55.72,25.74,55.73,26.27,55.67z M94.32,55.68c0.13,0.02,0.26,0.04,0.38,0.05
			c2.47,0.12,4.26,1.45,4.85,3.6c0.6,2.2-0.23,4.24-2.28,5.6c-0.85,0.56-1.69,1.13-2.57,1.65c-0.5,0.29-0.67,0.65-0.66,1.22
			c0.03,2.3,0.03,4.61,0.01,6.92c-0.02,2.83-1.9,4.79-4.73,4.93c-0.85,0.04-1.69,0.03-2.54,0.06c-3.04,0.14-5.49,1.46-7.23,3.93
			c-0.93,1.32-1.85,2.73-2.35,4.24c-2.01,6.1-3.86,12.26-5.76,18.4c-0.03,0.08,0.02,0.18,0.04,0.33c1.1,0,2.18-0.06,3.26,0.02
			c0.74,0.05,0.99-0.26,1.17-0.91c0.87-3.06,1.77-6.11,2.67-9.16c0.63-2.14,1.2-4.31,1.95-6.41c0.87-2.45,2.37-3.41,4.94-3.42
			c1.19,0,2.37,0.01,3.56,0c7.03-0.07,12.09-5.15,12.12-12.17c0.02-5.83,0.01-11.66,0-17.49c0-0.54-0.06-1.09-0.21-1.6
			c-0.48-1.53-1.97-2.48-3.63-2.36C95.82,53.21,94.59,54.26,94.32,55.68z M29.77,69.15c0,1.47,0,2.79,0,4.1
			c0,3.09,0.04,3.16,3.11,3.15c4.99-0.02,8.81,2.09,11.48,6.27c0.67,1.05,1.2,2.2,1.79,3.3c0.11,0.2,0.23,0.4,0.41,0.7
			c0-4.08,0-8,0-12.01c-0.43,0-0.79,0-1.16,0c-2.3,0-4.61,0.01-6.91-0.01c-1.38-0.01-1.97-0.61-1.99-2c-0.01-0.9,0-1.79,0-2.67
			C34.19,69.73,31.97,70.35,29.77,69.15z M74.01,86.66c0.76-1.39,1.39-2.7,2.16-3.92c2.09-3.3,4.97-5.53,8.91-6.12
			c1.33-0.2,2.7-0.16,4.05-0.22c0.95-0.04,1.61-0.47,1.64-1.44c0.06-1.89,0.02-3.77,0.02-5.4c-2.24,0.17-4.44,0.34-6.71,0.52
			c0,0.39,0,0.79,0,1.19c0,3.3-0.11,3.4-3.44,3.4c-2.19,0-4.38,0-6.63,0C74.01,78.69,74.01,82.61,74.01,86.66z M40.75,66.66
			c1.39,0,2.78,0,4.17,0c1.39,0,2.78,0.03,4.17-0.03c1.02-0.04,1.66-0.78,1.64-1.71c-0.02-0.93-0.7-1.58-1.72-1.63
			c-0.27-0.01-0.54,0-0.81,0c-4.78,0-9.56,0.01-14.34-0.02c-0.54,0-1.13-0.18-1.59-0.46c-1.76-1.07-3.48-2.23-5.22-3.34
			c-1.11-0.71-2.1-0.59-2.67,0.3c-0.57,0.9-0.27,1.81,0.86,2.54c1.96,1.27,3.9,2.57,5.9,3.78c0.55,0.33,1.25,0.54,1.89,0.55
			C35.6,66.7,38.18,66.66,40.75,66.66z M79.89,66.66c2.54,0,5.09,0.03,7.63-0.02c0.61-0.01,1.3-0.17,1.81-0.48
			c2.05-1.25,4.06-2.58,6.08-3.89c1.1-0.72,1.38-1.67,0.77-2.56c-0.57-0.84-1.53-0.95-2.6-0.27c-1.71,1.09-3.4,2.23-5.14,3.28
			c-0.52,0.31-1.17,0.52-1.77,0.54c-2.64,0.06-5.29,0.02-7.93,0.02c-2.34,0-4.68-0.01-7.02,0.01c-1.33,0.01-2.19,1.07-1.79,2.19
			c0.32,0.89,1.03,1.18,1.93,1.18C74.53,66.65,77.21,66.66,79.89,66.66z M22.95,49.49c2.75,0.01,4.99-2.21,4.97-4.95
			c-0.01-2.7-2.21-4.88-4.92-4.89c-2.75-0.01-5,2.22-4.97,4.94C18.05,47.3,20.24,49.48,22.95,49.49z M97.64,49.49
			c2.7-0.01,4.9-2.21,4.92-4.9c0.02-2.72-2.23-4.95-4.99-4.93c-2.71,0.01-4.9,2.2-4.91,4.9C92.65,47.29,94.88,49.5,97.64,49.49z
			 M80.77,70c-13.69,0-27.32,0-40.94,0c0,0.5,0,0.92,0,1.35c13.68,0,27.29,0,40.94,0C80.77,70.89,80.77,70.5,80.77,70z
			 M29.96,106.58c0-5.56,0-11.03,0-16.51c-0.36,0-0.64,0-0.95,0c0,5.54,0,11.01,0,16.51C29.34,106.58,29.6,106.58,29.96,106.58z
			 M91.57,106.56c0-5.53,0-11,0-16.5c-0.35,0-0.63,0-0.96,0c0,5.53,0,11,0,16.5C90.97,106.56,91.25,106.56,91.57,106.56z"/>
		<path class="st0" d="M73.81,42.79c-0.13,0.11-0.25,0.19-0.33,0.29c-3.55,3.95-8,5.76-13.29,5.66c-2.37-0.05-4.75-0.06-7.12,0.02
			c-0.8,0.03-1.67,0.25-2.36,0.65c-2.67,1.53-5.29,3.16-7.92,4.77c-0.71,0.43-1.4,0.7-2.17,0.19c-0.78-0.52-0.77-1.29-0.63-2.09
			c0.31-1.73,0.61-3.47,0.94-5.2c0.12-0.63-0.02-1.01-0.58-1.43c-5.7-4.34-8.07-10.1-6.43-17.08c1.6-6.83,6.18-10.92,13.05-12.42
			c0.53-0.12,1.09-0.25,1.61-0.19c1.44,0.17,2.29-0.57,3.23-1.56c3.14-3.3,7.07-4.95,11.62-5.01c3.83-0.05,7.66-0.03,11.49-0.01
			c7.06,0.04,13.33,4.65,15.5,11.36c2.18,6.74-0.18,14.08-5.93,18.26c-0.72,0.53-0.9,1.01-0.72,1.84c0.36,1.65,0.61,3.33,0.9,5
			c0.13,0.77,0.11,1.5-0.61,2.01c-0.76,0.53-1.46,0.28-2.17-0.16C79.2,46.05,76.51,44.43,73.81,42.79z M80.78,43.2
			c0.03-0.25,0.06-0.31,0.04-0.38c-0.15-0.9-0.29-1.8-0.46-2.7c-0.36-1.95-0.3-2.11,1.35-3.14c4.95-3.08,7.31-9.03,5.79-14.63
			c-1.5-5.53-6.59-9.6-12.29-9.7c-4.03-0.07-8.07-0.08-12.1,0c-8.11,0.17-14.16,7.9-12.45,15.83c1.33,6.19,6.48,10.36,12.99,10.46
			c3.01,0.05,6.03-0.02,9.05,0.04c0.67,0.01,1.41,0.23,2,0.56C76.73,40.7,78.71,41.94,80.78,43.2z M69.64,42.28
			c-0.55-0.03-0.87-0.06-1.2-0.06c-2.13-0.03-4.27,0.03-6.4-0.09c-8.6-0.51-15.73-8.87-14.84-17.44c0.19-1.79,0.66-3.56,1.01-5.38
			c-0.27,0.03-0.64,0.04-0.99,0.11c-5.29,1.13-9.49,5.42-10.32,10.53c-0.9,5.58,1.45,10.76,6.21,13.64c1.39,0.84,1.53,1.2,1.23,2.84
			c-0.19,1.05-0.36,2.1-0.57,3.34c2.12-1.28,4.03-2.5,6.01-3.6c0.7-0.39,1.57-0.65,2.37-0.67c3.35-0.09,6.71,0.01,10.06-0.12
			C64.93,45.28,67.34,44.18,69.64,42.28z"/>
		<path class="st0" d="M69.21,20.99c-2.68,0-5.36,0.01-8.04,0c-1.25,0-1.93-0.57-1.95-1.58c-0.02-1.05,0.69-1.67,1.98-1.67
			c5.32-0.01,10.65-0.01,15.97,0c1.19,0,1.95,0.64,1.97,1.6c0.03,1.01-0.73,1.64-2,1.65C74.5,21,71.86,20.99,69.21,20.99z"/>
		<path class="st0" d="M69.22,24.2c2.65,0,5.29-0.01,7.94,0c1.23,0,1.96,0.58,1.99,1.55c0.04,0.99-0.75,1.69-1.98,1.7
			c-5.32,0.01-10.65,0.01-15.97,0c-1.28,0-1.99-0.64-1.97-1.69c0.02-1,0.71-1.56,1.96-1.56C63.86,24.19,66.54,24.2,69.22,24.2z"/>
		<path class="st0" d="M69.24,33.85c-2.71,0-5.42-0.01-8.14,0c-0.86,0-1.55-0.28-1.82-1.16c-0.33-1.06,0.38-2.02,1.58-2.08
			c1.05-0.06,2.1-0.02,3.15-0.02c4.24,0,8.48,0,12.71,0c0.3,0,0.61-0.01,0.91,0.03c0.9,0.12,1.52,0.82,1.5,1.64
			c-0.02,0.84-0.65,1.53-1.57,1.55c-1.9,0.05-3.8,0.03-5.7,0.03C71.01,33.85,70.12,33.85,69.24,33.85z"/>
	</g>
</g>
</svg>
