<?xml version="1.0" encoding="utf-8"?>
<!-- Generator: Adobe Illustrator 28.1.0, SVG Export Plug-In . SVG Version: 6.00 Build 0)  -->
<svg version="1.1" id="Ebene_1" xmlns="http://www.w3.org/2000/svg" xmlns:xlink="http://www.w3.org/1999/xlink" x="0px" y="0px"
	 viewBox="0 0 120 120" style="enable-background:new 0 0 120 120;" xml:space="preserve">
<style type="text/css">
	.st0{fill:#F69800;}
</style>
<g>
	<path class="st0" d="M22.94,110.51c-0.53-0.16-1.06-0.32-1.58-0.49c-3.6-1.2-6.16-4.61-6.35-8.45c-0.01-0.3-0.02-0.6-0.02-0.89
		c0-23.79,0-47.58,0-71.37c0-4.44,2.36-7.98,6.27-9.29c1.05-0.35,2.2-0.52,3.31-0.54c3.35-0.07,6.69-0.02,10.04-0.02
		c0.26,0,0.51,0,0.81,0c0.05-0.58,0.04-1.07,0.14-1.55c0.43-2.14,2.38-3.77,4.61-3.81c1.79-0.03,3.57-0.01,5.37-0.01
		c1.08-3.29,3.21-5.37,6.74-5.33c3.43,0.04,5.51,2.09,6.53,5.32c1.47,0,2.93,0.1,4.38-0.02c3.14-0.25,5.64,1.78,5.53,5.39
		c0.35,0,0.7,0,1.05,0c3.15,0,6.3,0,9.44,0c6.23,0,10.15,3.94,10.15,10.2c0,10.01,0,20.01,0,30.02c0,0.36,0,0.71,0,1.07
		c0.06,0.02,0.12,0.05,0.18,0.07c0.7-1.21,1.4-2.42,2.09-3.64c0.67-1.18,1.4-2.33,1.98-3.56c1.32-2.78,4.31-2.7,6.1-1.71
		c0.93,0.51,1.84,1.05,2.75,1.59c2.56,1.49,3.16,3.75,1.68,6.31c-4.69,8.14-9.38,16.29-14.1,24.42c-0.49,0.84-0.69,1.66-0.69,2.62
		c0.04,4.47,0.02,8.95,0.02,13.42c0,5.53-2.6,8.82-8,10.15c-0.06,0.01-0.1,0.08-0.15,0.12C61.78,110.51,42.36,110.51,22.94,110.51z
		 M68.67,21.85c0,1.21,0.01,2.33,0,3.45c-0.01,1.12-0.38,1.5-1.49,1.5c-10.04,0.01-20.08,0.01-30.12,0c-1.16,0-1.58-0.45-1.59-1.64
		c-0.01-1.08,0-2.17,0-3.21c-0.17-0.06-0.23-0.1-0.29-0.1c-3.05-0.01-6.1-0.02-9.14-0.01c-0.89,0-1.8-0.05-2.68,0.09
		c-3.58,0.57-5.98,3.52-5.98,7.31c-0.01,13.29,0,26.57,0,39.86c0,10.57-0.01,21.14,0.01,31.71c0.01,4.21,3.03,7.32,7.13,7.33
		c18.39,0.01,36.78,0.01,55.16,0c4.2,0,7.26-3.09,7.28-7.3c0.02-3.41,0.01-6.83,0-10.24c0-0.23-0.04-0.46-0.09-0.87
		c-1.84,3.2-3.56,6.22-5.32,9.21c-0.29,0.49-0.7,0.99-1.18,1.29c-2.63,1.67-5.28,3.3-7.96,4.88c-0.45,0.27-1.26,0.47-1.6,0.25
		c-0.41-0.27-0.72-1.03-0.71-1.57c0.06-3.21,0.22-6.42,0.36-9.63c0.01-0.28,0.09-0.59,0.23-0.84c5.25-9.08,10.53-18.15,15.77-27.24
		c0.3-0.51,0.48-1.17,0.48-1.76c0.03-6.59,0.02-13.19,0.02-19.78c0-5.2,0.03-10.4-0.01-15.61c-0.03-3.8-2.97-6.94-6.7-7.05
		C76.44,21.76,72.63,21.85,68.67,21.85z M66.28,24.38c0-1.83,0.01-3.58,0-5.32c-0.01-1.76-0.84-2.58-2.64-2.59
		c-1.85-0.01-3.71,0-5.56,0c-1.38,0-1.61-0.21-1.75-1.55c-0.24-2.17-2-3.8-4.13-3.81c-2.17-0.01-3.96,1.63-4.2,3.85
		c-0.13,1.28-0.39,1.51-1.69,1.52c-1.99,0.01-3.97-0.01-5.96,0.01c-1.35,0.01-2.39,0.72-2.45,1.85c-0.1,2-0.03,4.01-0.03,6.06
		C47.35,24.38,56.75,24.38,66.28,24.38z M92.52,60.22c-6.44,11.15-12.84,22.23-19.26,33.36c2.14,1.27,4.21,2.5,6.36,3.77
		c6.44-11.22,12.84-22.36,19.26-33.56C96.74,62.59,94.69,61.44,92.52,60.22z M100.14,61.72c0.77-1.35,1.49-2.57,2.17-3.81
		c0.41-0.75,0.27-1.43-0.47-1.88c-1.24-0.75-2.49-1.49-3.77-2.17c-0.84-0.45-1.76-0.2-2.26,0.59c-0.71,1.14-1.35,2.32-2.05,3.54
		C95.89,59.23,97.96,60.44,100.14,61.72z M72.8,102.06c1.62-1,3.21-1.98,4.93-3.04c-1.66-0.94-3.19-1.81-4.93-2.8
		C72.8,98.27,72.8,100.11,72.8,102.06z"/>
	<path class="st0" d="M25.32,55.81c0-1.29-0.01-2.58,0-3.87c0.01-1.06,0.39-1.46,1.42-1.47c2.55-0.01,5.1-0.02,7.65,0
		c0.99,0.01,1.46,0.47,1.46,1.46c0.02,2.61,0.02,5.23,0,7.84c-0.01,0.93-0.48,1.41-1.41,1.42c-2.58,0.02-5.16,0.02-7.74,0
		c-0.97-0.01-1.36-0.42-1.37-1.41C25.31,58.46,25.32,57.13,25.32,55.81z M27.77,52.9c0,2,0,3.93,0,5.84c1.93,0,3.79,0,5.65,0
		c0-1.98,0-3.89,0-5.84C31.54,52.9,29.7,52.9,27.77,52.9z"/>
	<path class="st0" d="M25.32,37.52c0-1.29,0-2.58,0-3.87c0-0.86,0.42-1.28,1.28-1.28c2.65,0,5.29,0,7.94,0
		c0.9,0,1.32,0.48,1.32,1.37c0,2.58,0.01,5.16-0.01,7.74c-0.01,0.93-0.48,1.41-1.41,1.41c-2.58,0.02-5.16,0.02-7.74,0
		c-0.97-0.01-1.36-0.41-1.37-1.41C25.31,40.17,25.32,38.84,25.32,37.52z M33.4,40.48c0-1.95,0-3.81,0-5.64c-1.94,0-3.8,0-5.64,0
		c0,1.92,0,3.76,0,5.64C29.66,40.48,31.5,40.48,33.4,40.48z"/>
	<path class="st0" d="M25.32,92.36c0-1.29-0.01-2.58,0-3.87c0.01-1.04,0.4-1.43,1.45-1.43c2.51-0.01,5.03-0.01,7.54,0
		c1.06,0.01,1.53,0.45,1.53,1.49c0.01,2.55,0.02,5.09,0,7.64c-0.01,0.99-0.4,1.39-1.39,1.39c-2.61,0.02-5.23,0-7.84,0.01
		c-0.92,0-1.31-0.46-1.3-1.36C25.33,94.94,25.32,93.65,25.32,92.36z M33.43,89.51c-1.94,0-3.81,0-5.64,0c0,1.94,0,3.8,0,5.64
		c1.92,0,3.76,0,5.64,0C33.43,93.26,33.43,91.42,33.43,89.51z"/>
	<path class="st0" d="M30.59,79.29c-1.29,0-2.58,0.01-3.87,0c-1.04-0.01-1.39-0.33-1.39-1.35c-0.01-2.58-0.01-5.16,0-7.74
		c0.01-1.04,0.4-1.43,1.45-1.43c2.51-0.01,5.03-0.01,7.54,0c1.1,0.01,1.53,0.46,1.54,1.59c0.01,2.48,0.01,4.96,0,7.44
		c-0.01,1.11-0.38,1.48-1.49,1.49C33.11,79.3,31.85,79.29,30.59,79.29z M33.43,71.2c-1.91,0-3.77,0-5.65,0c0,1.92,0,3.78,0,5.64
		c1.93,0,3.79,0,5.65,0C33.43,74.92,33.43,73.08,33.43,71.2z"/>
	<path class="st0" d="M67.28,72.53c-3.28,0-6.56,0-9.83,0c-0.26,0-0.62,0.1-0.78-0.03c-0.42-0.35-0.96-0.75-1.06-1.21
		c-0.14-0.66,0.4-1.06,1.09-1.13c0.13-0.01,0.26-0.01,0.4-0.01c6.79,0,13.57,0,20.36,0c0.82,0,1.47,0.21,1.53,1.15
		c0.05,0.75-0.58,1.24-1.58,1.24C74.03,72.54,70.65,72.53,67.28,72.53z"/>
	<path class="st0" d="M67.38,33.56c3.31,0,6.62,0,9.93,0c1.03,0,1.65,0.43,1.68,1.14c0.04,0.75-0.62,1.24-1.69,1.24
		c-6.69,0-13.38,0-20.07,0c-1.03,0-1.65-0.43-1.68-1.14c-0.04-0.75,0.62-1.24,1.69-1.24C60.62,33.56,64,33.56,67.38,33.56z"/>
	<path class="st0" d="M67.28,54.24c-3.34,0-6.69,0-10.03,0c-1.07,0-1.72-0.49-1.69-1.24c0.03-0.71,0.65-1.15,1.68-1.15
		c6.69,0,13.38,0,20.07,0c1.07,0,1.72,0.49,1.69,1.24c-0.03,0.71-0.65,1.14-1.68,1.15C73.97,54.24,70.62,54.24,67.28,54.24z"/>
	<path class="st0" d="M62.91,88.44c1.89,0,3.77,0.01,5.66,0c0.79-0.01,1.39,0.24,1.47,1.11c0.07,0.72-0.55,1.27-1.44,1.27
		c-3.87,0.01-7.74,0.01-11.61,0c-0.81,0-1.38-0.37-1.41-1.2c-0.03-0.87,0.57-1.19,1.38-1.19C58.94,88.44,60.93,88.44,62.91,88.44z"
		/>
	<path class="st0" d="M69.79,41.51c-0.69,0-1.39,0.02-2.08-0.01c-0.73-0.03-1.21-0.41-1.2-1.16c0.01-0.73,0.48-1.18,1.2-1.2
		c1.35-0.04,2.71-0.04,4.06,0c0.77,0.02,1.26,0.47,1.25,1.25c-0.01,0.75-0.51,1.11-1.25,1.12C71.11,41.52,70.45,41.51,69.79,41.51z"
		/>
	<path class="st0" d="M58.83,41.51c-0.69,0-1.39,0.02-2.08-0.01c-0.69-0.02-1.15-0.39-1.18-1.09c-0.03-0.73,0.41-1.23,1.12-1.26
		c1.42-0.06,2.84-0.06,4.26,0c0.71,0.03,1.16,0.52,1.13,1.26c-0.03,0.7-0.48,1.07-1.17,1.09C60.22,41.53,59.52,41.51,58.83,41.51z"
		/>
	<path class="st0" d="M69.78,59.81c-0.66,0-1.32,0-1.98,0c-0.73,0-1.25-0.33-1.29-1.08c-0.04-0.78,0.44-1.26,1.21-1.28
		c1.35-0.05,2.71-0.04,4.06,0c0.77,0.02,1.25,0.48,1.24,1.26c-0.02,0.75-0.53,1.1-1.26,1.11C71.1,59.81,70.44,59.81,69.78,59.81z"/>
	<path class="st0" d="M58.77,59.81c-0.66,0-1.32,0.01-1.98,0c-0.68-0.02-1.16-0.35-1.21-1.05c-0.06-0.74,0.38-1.26,1.08-1.29
		c1.45-0.07,2.91-0.11,4.35,0.04c0.4,0.04,0.94,0.72,1.03,1.19c0.14,0.66-0.41,1.08-1.1,1.11C60.22,59.83,59.49,59.8,58.77,59.81
		C58.77,59.8,58.77,59.81,58.77,59.81z"/>
	<path class="st0" d="M58.88,75.72c0.66,0,1.32-0.03,1.98,0.01c0.72,0.04,1.21,0.46,1.21,1.19c-0.01,0.72-0.5,1.15-1.22,1.17
		c-1.35,0.03-2.71,0.04-4.07,0c-0.72-0.02-1.21-0.46-1.21-1.19c0.01-0.73,0.5-1.14,1.22-1.17C57.49,75.69,58.19,75.72,58.88,75.72z"
		/>
	<path class="st0" d="M69.73,78.1c-0.66,0-1.32,0.03-1.98-0.01c-0.72-0.04-1.22-0.44-1.23-1.17c-0.01-0.73,0.48-1.17,1.2-1.19
		c1.35-0.04,2.71-0.03,4.07,0c0.72,0.02,1.22,0.44,1.23,1.17c0.01,0.73-0.48,1.15-1.2,1.19C71.12,78.13,70.42,78.1,69.73,78.1z"/>
	<path class="st0" d="M58.92,94.01c0.63,0,1.26-0.02,1.88,0.01c0.77,0.04,1.29,0.45,1.26,1.23c-0.02,0.72-0.53,1.13-1.26,1.14
		c-1.32,0.02-2.65,0.03-3.97,0c-0.77-0.02-1.29-0.45-1.26-1.23c0.02-0.72,0.53-1.11,1.26-1.14C57.53,93.99,58.23,94.01,58.92,94.01z
		"/>
	<path class="st0" d="M48.03,70.15c0.66,0,1.32-0.01,1.98,0c0.7,0.01,1.12,0.37,1.15,1.08c0.02,0.73-0.34,1.24-1.08,1.27
		c-1.38,0.05-2.77,0.05-4.15,0c-0.75-0.02-1.12-0.52-1.1-1.26c0.02-0.71,0.43-1.08,1.13-1.1C46.65,70.14,47.34,70.15,48.03,70.15z"
		/>
	<path class="st0" d="M47.95,41.51c-0.66,0-1.32,0.01-1.98,0c-0.7-0.01-1.12-0.37-1.15-1.09c-0.02-0.73,0.34-1.24,1.08-1.27
		c1.38-0.05,2.77-0.05,4.15,0c0.75,0.02,1.12,0.52,1.1,1.26c-0.02,0.71-0.43,1.08-1.13,1.1C49.33,41.52,48.64,41.51,47.95,41.51z"/>
	<path class="st0" d="M47.99,88.45c0.69,0,1.39-0.02,2.08,0.01c0.71,0.03,1.09,0.43,1.09,1.14c0,0.69-0.36,1.18-1.05,1.21
		c-1.42,0.05-2.84,0.05-4.25,0c-0.69-0.03-1.04-0.52-1.04-1.21c0-0.71,0.38-1.11,1.1-1.13C46.61,88.43,47.3,88.45,47.99,88.45z"/>
	<path class="st0" d="M47.98,59.8c-0.69,0-1.39,0.02-2.08-0.01c-0.71-0.03-1.09-0.44-1.08-1.14c0-0.69,0.36-1.18,1.05-1.2
		c1.42-0.05,2.84-0.05,4.25,0c0.69,0.03,1.04,0.53,1.04,1.22c-0.01,0.71-0.39,1.11-1.1,1.13C49.37,59.82,48.67,59.8,47.98,59.8z"/>
	<path class="st0" d="M47.92,78.1c-0.63,0-1.25,0.02-1.88,0c-0.74-0.02-1.19-0.41-1.21-1.16c-0.02-0.74,0.41-1.19,1.15-1.21
		c1.35-0.03,2.71-0.03,4.06,0c0.7,0.02,1.1,0.46,1.11,1.15c0.01,0.74-0.41,1.17-1.16,1.21C49.31,78.12,48.61,78.1,47.92,78.1z"/>
	<path class="st0" d="M48.08,33.57c0.63,0,1.25-0.02,1.88,0c0.74,0.03,1.19,0.43,1.19,1.17c0.01,0.74-0.43,1.18-1.17,1.19
		c-1.32,0.03-2.64,0.02-3.96,0c-0.74-0.01-1.19-0.43-1.19-1.17c-0.01-0.74,0.43-1.16,1.17-1.19C46.69,33.55,47.38,33.57,48.08,33.57
		z"/>
	<path class="st0" d="M48.08,51.86c0.63,0,1.25-0.02,1.88,0c0.74,0.03,1.19,0.43,1.19,1.17c0.01,0.74-0.43,1.18-1.17,1.19
		c-1.32,0.03-2.64,0.02-3.96,0c-0.74-0.01-1.19-0.43-1.19-1.17c-0.01-0.74,0.43-1.16,1.17-1.19C46.69,51.84,47.38,51.86,48.08,51.86
		z"/>
	<path class="st0" d="M47.98,96.39c-0.66,0-1.32,0.02-1.98-0.01c-0.74-0.03-1.18-0.45-1.17-1.2c0.01-0.74,0.45-1.16,1.19-1.17
		c1.32-0.02,2.64-0.02,3.96,0c0.74,0.02,1.18,0.45,1.17,1.19c-0.01,0.74-0.45,1.15-1.19,1.17C49.3,96.41,48.64,96.39,47.98,96.39z"
		/>
	<path class="st0" d="M49.79,17.69c0-1.31,1.1-2.41,2.39-2.41c1.29,0.01,2.38,1.12,2.37,2.43c-0.01,1.4-1.08,2.53-2.39,2.53
		C50.85,20.23,49.78,19.08,49.79,17.69z"/>
	<path class="st0" d="M91.69,67.54c1.33,0.13,1.7,0.98,1.11,2.01c-1.72,3.02-3.46,6.03-5.19,9.04c-1.99,3.47-3.99,6.94-5.98,10.41
		c-0.58,1-1.12,1.25-1.78,0.85c-0.77-0.46-0.89-1.19-0.33-2.15c3.77-6.46,7.53-12.92,11.33-19.37
		C91.07,67.97,91.5,67.72,91.69,67.54z"/>
</g>
</svg>
