<?xml version="1.0" encoding="utf-8"?>
<!-- Generator: Adobe Illustrator 28.1.0, SVG Export Plug-In . SVG Version: 6.00 Build 0)  -->
<svg version="1.1" id="Ebene_1" xmlns="http://www.w3.org/2000/svg" xmlns:xlink="http://www.w3.org/1999/xlink" x="0px" y="0px"
	 viewBox="0 0 120 120" style="enable-background:new 0 0 120 120;" xml:space="preserve">
<style type="text/css">
	.st0{fill:#F69800;}
</style>
<g>
	<path class="st0" d="M27.52,110.48c-8.2-2.68-14.23-7.47-15.92-16.45c-2.32-12.29,7.19-23.7,19.79-23.43
		c2.9,0.06,4.81-0.73,6.79-2.75c10.24-10.41,20.68-20.62,30.86-31.07c1.32-1.36,2.24-3.76,2.23-5.67
		c-0.05-12.4,10.48-22.37,22.24-20.63c1.28,0.19,2.46,1.08,3.68,1.64c-0.62,1.08-1.09,2.28-1.89,3.21c-1.36,1.58-2.75,3.22-4.43,4.4
		c-4,2.82-4.37,6.09-2.37,10.36c1.85,3.94,8.44,5.64,11.5,2.61c2.31-2.29,4.69-4.54,6.89-6.93c1.63-1.77,2.98-1.86,4.38,0.15
		c0,2.87,0,5.74,0,8.61c-3.79,10.62-10.84,16.5-22.6,15.65c-0.77-0.06-1.75,0.44-2.37,0.98c-2.62,2.29-5.14,4.68-7.6,6.96
		c2.89,3.74,2.81,3.74,2.81,8.71c0,0.53,2.13,1.71,2.41,1.49c2.49-1.96,4-0.53,5.61,1.21c1.5,1.62,3.18,3.08,4.66,4.71
		c5.72,6.31,11.39,12.66,17.08,18.99c0,2.61,0,5.22,0,7.83c-2.25,4.37-5.45,7.71-10.18,9.4c-2.09,0-4.18,0-6.26,0
		c-2.29-1.43-4.88-2.54-6.8-4.36c-6.22-5.91-12.26-12.02-18.18-18.24c-0.84-0.88-0.65-2.78-0.81-4.22c-0.1-0.9,0.01-1.83,0.03-2.75
		c-0.95,0.1-1.9,0.3-2.84,0.26c-1.24-0.05-2.61-0.01-3.68-0.52c-1.09-0.51-1.9-1.64-3.37-2.98c-1.32,1.52-2.36,3.03-3.7,4.22
		c-3.02,2.67-4.81,5.45-4.65,9.95c0.12,3.24-1.55,6.78-3.16,9.79c-2.59,4.82-7.51,6.88-12.34,8.86
		C32.74,110.48,30.13,110.48,27.52,110.48z M91.04,14.04c-9.19-0.87-17.37,8.25-16.29,18.12c0.18,1.66-0.39,3.97-1.5,5.11
		C61.67,49.11,49.95,60.81,38.13,72.4c-1.08,1.06-3.22,1.67-4.76,1.51C23.5,72.88,14.9,79.9,14.33,89.72
		c-0.55,9.53,7.3,17.69,16.94,17.61c9.79-0.08,17.48-8.43,16.45-18.32c-0.3-2.84,0.47-4.59,2.38-6.48
		c11.22-11.09,22.38-22.24,33.47-33.47c1.9-1.93,3.67-2.62,6.5-2.28c11.19,1.34,19.02-9.33,17.56-16.76
		c-3.02,2.84-5.6,7.16-8.94,7.87c-3.51,0.74-8.51-1.06-11.44-3.48c-2.42-2-4.39-6.94-3.63-9.8C84.67,20.68,88.48,17.47,91.04,14.04z
		 M90.81,104.24c4.89-4.89,9.54-9.54,14.45-14.46c-5.65-5.59-11.52-11.49-17.55-17.24c-0.67-0.64-2.25-0.61-3.35-0.46
		c-4.28,0.59-6.91-2.22-6.3-6.53c0.19-1.36-0.56-2.86-0.81-4.01c-5.19,5.21-9.84,9.88-14.86,14.92c1.22,0.25,2.61,0.92,3.87,0.72
		c4.63-0.73,7.35,1.81,6.67,6.38c-0.15,0.99-0.2,2.44,0.37,3.03C79.17,92.68,85.18,98.61,90.81,104.24z M95.51,106.53
		c3.21,1.28,6.51,0.48,9.18-2.11c2.82-2.74,4.13-6.14,2.89-10.08C103.44,98.51,99.46,102.53,95.51,106.53z"/>
	<path class="st0" d="M55.73,45.77c-0.86,0.81-1.55,1.48-2.39,2.27c-7.09-7.07-14.01-13.95-20.9-20.86
		c-0.45-0.45-1.01-1.04-1.04-1.6c-0.41-7.23-6.68-8.46-11.52-11.48c-1.49,1.73-2.92,3.38-4.61,5.34c1.29,2.26,2.71,5.03,4.41,7.61
		c0.63,0.97,1.85,1.59,2.89,2.24c2.79,1.75,5.99,3.02,8.36,5.2c6.13,5.65,11.89,11.69,17.98,17.76c-0.71,0.88-1.33,1.64-2,2.48
		c-0.57-0.45-1-0.72-1.36-1.07c-5.17-5.15-10.39-10.26-15.48-15.5c-2.75-2.84-5.47-5.46-9.69-6.05c-1.15-0.16-2.37-1.47-3.11-2.55
		c-1.47-2.14-2.42-4.66-3.99-6.71c-2.5-3.26-1.88-5.52,1.09-8.21c6.14-5.57,3.92-5.16,10.93-1.34c4.22,2.29,8.8,4.15,9.01,10.16
		c0.04,1.15,1.51,2.35,2.49,3.35C43.02,33.1,49.3,39.35,55.73,45.77z"/>
	<path class="st0" d="M30.81,100.86c-2.02-0.48-4.82-0.31-6-1.6c-2.21-2.44-4.81-5.75-4.76-8.65c0.06-3.08,2.49-6.65,4.89-8.96
		c1.46-1.41,4.82-1.06,7.34-1.08c1.83-0.02,4.42,0,5.36,1.11c2.14,2.53,4.81,5.77,4.76,8.67c-0.06,3.08-2.58,6.51-4.88,9
		C36.28,100.69,33.25,100.38,30.81,100.86z M30.91,97.15c3.72,0.01,8.34-3.85,8.16-6.83c-0.16-2.85-4.27-6.5-7.32-6.51
		c-3.99-0.01-8.29,3.41-8.31,6.63C23.43,93.34,27.66,97.15,30.91,97.15z"/>
	<path class="st0" d="M78.78,41.18c0.6,0.65,1.2,1.3,1.6,1.74C68.19,55.1,56.16,67.14,43.92,79.38c-1.31-0.66-2.56-1.44-0.58-3.41
		c11.45-11.39,22.86-22.82,34.3-34.22C77.9,41.5,78.32,41.4,78.78,41.18z"/>
	<path class="st0" d="M80.8,78.1c5.4,5.4,10.72,10.72,16.29,16.29c-0.42,0.52-1.02,1.26-1.64,2.02c-0.49-0.29-0.87-0.43-1.13-0.68
		c-4.61-4.59-9.15-9.23-13.82-13.76C78.74,80.25,78.49,79.05,80.8,78.1z"/>
</g>
</svg>
