<?xml version="1.0" encoding="utf-8"?>
<!-- Generator: Adobe Illustrator 28.1.0, SVG Export Plug-In . SVG Version: 6.00 Build 0)  -->
<svg version="1.1" id="Ebene_1" xmlns="http://www.w3.org/2000/svg" xmlns:xlink="http://www.w3.org/1999/xlink" x="0px" y="0px"
	 viewBox="0 0 120 120" style="enable-background:new 0 0 120 120;" xml:space="preserve">
<style type="text/css">
	.st0{fill:#F69800;}
</style>
<g>
	<path class="st0" d="M112.78,17.07c0.33,3.01,0.09,5.22-1.08,7.49c-12.96,25.12-25.84,50.29-38.69,75.47
		c-0.77,1.51-1.62,2.01-3.29,2.01c-16.08-0.06-32.15-0.07-48.23,0c-1.96,0.01-3.22-0.69-4.41-2.57c1.06,0,1.86,0,2.66,0
		c16.08,0,32.16-0.04,48.23,0.05c2.19,0.01,3.25-0.74,4.22-2.65c13.08-25.83,26.24-51.62,39.38-77.43
		C111.89,18.83,112.2,18.22,112.78,17.07z"/>
	<path class="st0" d="M44.44,96.99c1.97-3.9,3.73-7.37,5.5-10.85c1.62-3.18,3.21-6.37,4.89-9.52c0.31-0.57,1-1.3,1.53-1.32
		c3.55-0.12,7.1-0.06,10.93-0.06c-0.4,0.88-0.66,1.49-0.96,2.08c-3.02,5.93-6.09,11.83-9.02,17.81c-0.72,1.47-1.57,1.96-3.16,1.89
		C51.07,96.9,47.99,96.99,44.44,96.99z"/>
	<path class="st0" d="M29.97,96.99c0.48-0.98,0.79-1.64,1.12-2.3c3.04-5.98,6.12-11.94,9.11-17.95c0.57-1.16,1.24-1.57,2.51-1.54
		c3.2,0.09,6.41,0.03,9.83,0.03c-0.31,0.76-0.47,1.26-0.71,1.73c-3.13,6.16-6.3,12.31-9.39,18.5c-0.57,1.15-1.26,1.58-2.53,1.55
		C36.71,96.93,33.51,96.99,29.97,96.99z"/>
	<path class="st0" d="M15.7,96.99c0.91-1.8,1.6-3.2,2.3-4.58c2.64-5.19,5.31-10.36,7.88-15.57c0.6-1.22,1.31-1.68,2.68-1.63
		c3.06,0.11,6.13,0.03,9.43,0.03c-0.29,0.76-0.43,1.27-0.67,1.73c-3.13,6.16-6.3,12.31-9.39,18.49c-0.57,1.13-1.24,1.6-2.53,1.56
		C22.35,96.93,19.27,96.99,15.7,96.99z"/>
	<path class="st0" d="M66.96,52.74c3.36-6.6,6.51-12.83,9.73-19.02c0.22-0.42,0.92-0.84,1.4-0.85c3.49-0.07,6.99-0.04,10.68-0.04
		c-0.21,0.59-0.31,1.03-0.52,1.43c-2.88,5.69-5.81,11.35-8.65,17.06c-0.54,1.09-1.18,1.46-2.36,1.44
		C73.95,52.69,70.66,52.74,66.96,52.74z"/>
	<path class="st0" d="M102.2,108.77c0,1.08,0,1.88,0,2.83c-27.25,0-54.43,0-81.78,0c-0.15-1.66,0.62-2.54,2.2-2.81
		c0.4-0.07,0.82-0.03,1.24-0.03c25.5,0,51.01,0,76.51,0C100.9,108.77,101.44,108.77,102.2,108.77z"/>
	<path class="st0" d="M52.46,52.74c3.38-6.64,6.54-12.87,9.76-19.06c0.22-0.42,0.94-0.8,1.44-0.81c3.43-0.07,6.86-0.04,10.61-0.04
		c-0.48,0.98-0.86,1.76-1.25,2.53c-2.67,5.26-5.38,10.5-7.99,15.8c-0.6,1.23-1.33,1.66-2.69,1.62
		C59.19,52.67,56.03,52.74,52.46,52.74z"/>
	<path class="st0" d="M59.79,32.84c-2.63,5.18-5.43,9.92-7.48,14.97c-1.65,4.06-4.01,5.7-8.3,4.99c-1.77-0.29-3.64-0.05-5.8-0.05
		c1.78-3.5,3.38-6.66,4.99-9.82c1.37-2.69,2.86-5.32,4.06-8.08c0.73-1.67,1.71-2.13,3.45-2.05C53.63,32.94,56.55,32.84,59.79,32.84z
		"/>
	<path class="st0" d="M26.01,35.82c-4.61-0.07-8.34-3.85-8.32-8.46c0.01-4.65,3.93-8.52,8.57-8.48c4.69,0.05,8.42,3.89,8.37,8.62
		C34.58,32.24,30.8,35.89,26.01,35.82z"/>
	<path class="st0" d="M80.35,75.23c-1.36,2.68-2.52,4.99-3.69,7.3c-2.2,4.34-4.45,8.65-6.59,13.02c-0.53,1.08-1.17,1.49-2.37,1.46
		c-2.73-0.08-5.46-0.02-8.46-0.02c0.36-0.81,0.57-1.37,0.84-1.9c3.1-6.11,6.24-12.2,9.29-18.33c0.56-1.13,1.21-1.61,2.5-1.56
		C74.54,75.31,77.21,75.23,80.35,75.23z"/>
	<path class="st0" d="M56.78,72.76c1.48-2.91,2.77-5.45,4.07-7.99c1.27-2.5,2.67-4.95,3.77-7.52c0.72-1.67,1.73-2.14,3.46-2.06
		c3.01,0.14,6.03,0.04,9.29,0.04c-0.23,0.63-0.36,1.12-0.58,1.56c-2.44,4.83-4.94,9.62-7.32,14.48c-0.57,1.16-1.27,1.56-2.53,1.52
		C63.71,72.71,60.49,72.76,56.78,72.76z"/>
	<path class="st0" d="M42.27,72.76c2.97-5.84,5.72-11.28,8.52-16.68c0.2-0.39,0.81-0.8,1.24-0.81c3.47-0.07,6.95-0.04,10.71-0.04
		c-0.34,0.8-0.53,1.35-0.8,1.87c-2.38,4.7-4.81,9.39-7.14,14.11c-0.55,1.12-1.2,1.62-2.5,1.58C49.09,72.7,45.88,72.76,42.27,72.76z"
		/>
	<path class="st0" d="M78.35,30.37c2.97-5.82,5.73-11.25,8.53-16.65c0.18-0.36,0.69-0.77,1.06-0.77c3.61-0.06,7.23-0.03,11.2-0.03
		c-2.05,4.04-3.93,7.76-5.83,11.46c-1,1.95-1.6,4.63-3.2,5.59c-1.69,1.01-4.37,0.36-6.62,0.41C81.91,30.39,80.33,30.37,78.35,30.37z
		"/>
	<path class="st0" d="M28.01,72.76c3-5.88,5.74-11.3,8.56-16.69c0.22-0.42,0.95-0.79,1.45-0.8c3.29-0.07,6.58-0.04,10.13-0.04
		c-0.22,0.63-0.33,1.13-0.55,1.57c-2.44,4.83-4.94,9.63-7.34,14.49c-0.57,1.16-1.28,1.55-2.54,1.51
		C34.66,72.7,31.59,72.76,28.01,72.76z"/>
	<path class="st0" d="M63.93,30.37c0.66-1.35,1.17-2.45,1.72-3.53c2.11-4.16,4.27-8.29,6.34-12.47c0.52-1.05,1.11-1.54,2.33-1.51
		c3.21,0.08,6.43,0.03,9.88,0.03c-0.2,0.63-0.29,1.07-0.48,1.46c-2.48,4.89-4.93,9.8-7.51,14.64c-0.35,0.65-1.38,1.29-2.13,1.32
		C70.8,30.45,67.52,30.37,63.93,30.37z"/>
	<path class="st0" d="M101.94,32.84c-2.06,4.06-3.98,7.84-5.9,11.61c-1.21,2.39-2.39,4.79-3.68,7.14c-0.27,0.5-0.95,1.09-1.45,1.1
		c-2.94,0.1-5.89,0.05-9.04,0.05c0.22-0.62,0.33-1.07,0.53-1.47c2.89-5.69,5.75-11.4,8.73-17.04c0.35-0.66,1.37-1.29,2.12-1.33
		C96.04,32.74,98.83,32.84,101.94,32.84z"/>
	<path class="st0" d="M69.96,12.89c-2.99,5.86-5.74,11.28-8.54,16.66c-0.2,0.38-0.82,0.77-1.25,0.78c-3.4,0.06-6.8,0.04-10.53,0.04
		c1.15-2.29,2.14-4.29,3.14-6.28c1.64-3.23,3.33-6.45,4.92-9.7c0.51-1.04,1.1-1.55,2.34-1.52C63.19,12.95,66.34,12.89,69.96,12.89z"
		/>
	<path class="st0" d="M71.45,72.76c2.97-5.84,5.71-11.27,8.53-16.66c0.22-0.42,0.93-0.82,1.42-0.84c2.87-0.08,5.75-0.04,8.95-0.04
		c-0.28,0.72-0.45,1.27-0.7,1.77c-2.41,4.76-4.86,9.51-7.24,14.29c-0.51,1.03-1.09,1.56-2.33,1.51
		C77.35,72.69,74.63,72.76,71.45,72.76z"/>
	<path class="st0" d="M112.08,12.89c-1.24,2.48-2.3,4.61-3.37,6.73c-1.61,3.17-3.18,6.37-4.88,9.49c-0.31,0.57-1.16,1.18-1.78,1.2
		c-2.87,0.13-5.74,0.06-8.97,0.06c0.58-1.17,1.05-2.13,1.53-3.08c2.17-4.27,4.39-8.52,6.48-12.82c0.6-1.24,1.35-1.66,2.7-1.61
		C106.43,12.96,109.08,12.89,112.08,12.89z"/>
	<path class="st0" d="M104.94,44.17c0,7.34,0.06,14.69-0.03,22.03c-0.03,2.67-2.03,4.43-4.5,4.39c-2.43-0.04-4.15-1.91-4.33-4.59
		c-0.23-3.49,0.23-6.72,2.09-9.84c2.33-3.93,4.24-8.1,6.33-12.17C104.64,44.05,104.79,44.11,104.94,44.17z"/>
	<path class="st0" d="M102.1,106.23c-0.92,0-1.72,0-2.66,0c0-11.02,0-21.97,0-33.05c0.85-0.07,1.66-0.14,2.66-0.23
		C102.1,84.02,102.1,95.03,102.1,106.23z"/>
	<path class="st0" d="M12.17,13.92c0.38-0.47,0.84-1.05,1.37-1.7c1.22,1.28,2.2,2.31,3.37,3.54c-0.53,0.47-1.07,0.95-1.59,1.4
		C14.27,16.08,13.29,15.07,12.17,13.92z"/>
	<path class="st0" d="M36.75,17.05c-0.33-0.33-0.84-0.85-1.3-1.31c1.17-1.18,2.16-2.19,3.27-3.32c0.42,0.4,0.95,0.91,1.41,1.35
		C39.02,14.85,37.98,15.86,36.75,17.05z"/>
	<path class="st0" d="M15.5,35.81c0.42,0.44,0.88,0.93,1.41,1.49c-1.1,1.02-2.14,1.97-3.32,3.07c-0.39-0.35-0.92-0.83-1.49-1.35
		C13.25,37.95,14.3,36.95,15.5,35.81z"/>
	<path class="st0" d="M27.15,12.24c-0.85-0.04-1.51-0.08-2.27-0.11c0-1.47,0-2.82,0-4.39c0.72-0.04,1.42-0.07,2.27-0.12
		C27.15,9.18,27.15,10.58,27.15,12.24z"/>
	<path class="st0" d="M11.96,27.55c-1.66,0-3.01,0-4.49,0c0-0.79,0-1.5,0-2.32c1.42,0,2.76,0,4.35,0
		C11.86,25.94,11.9,26.64,11.96,27.55z"/>
	<path class="st0" d="M44.88,25.23c0,0.81,0,1.47,0,2.27c-1.46,0-2.86,0-4.39,0c0-0.75,0-1.45,0-2.27
		C41.93,25.23,43.27,25.23,44.88,25.23z"/>
	<path class="st0" d="M27.42,45.18c-0.79,0-1.45,0-2.24,0c0-1.46,0-2.85,0-4.44c0.7-0.03,1.4-0.06,2.24-0.1
		C27.42,42.18,27.42,43.57,27.42,45.18z"/>
	<path class="st0" d="M35.65,37.01c0.46-0.42,0.95-0.87,1.49-1.38c1.02,1.11,1.97,2.14,3.05,3.31c-0.32,0.35-0.8,0.88-1.47,1.62
		C37.68,39.37,36.73,38.26,35.65,37.01z"/>
</g>
</svg>
