<?xml version="1.0" encoding="utf-8"?>
<!-- Generator: Adobe Illustrator 28.1.0, SVG Export Plug-In . SVG Version: 6.00 Build 0)  -->
<svg version="1.1" id="Ebene_1" xmlns="http://www.w3.org/2000/svg" xmlns:xlink="http://www.w3.org/1999/xlink" x="0px" y="0px"
	 viewBox="0 0 131.9 101.6" style="enable-background:new 0 0 131.9 101.6;" xml:space="preserve">
<style type="text/css">
	.st0{fill:#F69800;}
</style>
<g>
	<path class="st0" d="M1.1,36.6c0.4-1.1,1.1-2.1,1.3-3.2c0.9-4.4,3.5-5.6,7.8-5.2c2.8,0.3,5.7,1.8,8.4-1.6c2.5-3.2,3.1-5.8,1.4-9.5
		c-2.8-6.3-2.1-6.8,4.7-11c4.6-2.8,7.1-0.8,9.8,2.7c4.9,6.2,10.6,5.5,14-1.8c2.8-6.2,3.4-6.2,10.2-4.8c5.3,1.1,6.8,3.8,6.1,9.1
		c-1.1,8.2,4,11.8,11.5,8.5c4-1.8,7-1.8,9.4,2.5c4,7.1,4.1,7.7-0.6,11.7c-2.3,2-5.1,3.2-4.5,7.6c0.5,3.6,1.8,5.3,4.9,6.6
		c6.8,2.9,7.3,3.8,5.2,10.8c-1,3.2-0.1,4.6,2.6,6c3.9,2,7.7,4.3,11.5,6.6c4.1,2.4,7.7,5.1,13.2,3.2c2.4-0.8,5.8,1.1,8.8,1.8
		c0,0.6,0,1.1,0.1,1.7c-1.9,1.4-3.9,2.9-6.3,4.7c0.9,1.8,1.9,3.6,3,5.7c1-0.4,1.6-0.8,2.2-1c1.8-0.5,3.7-1,5.5-1.5
		c-0.1,2.3,0.3,4.7-0.5,6.8c-1.8,4.8-7,8.2-12.1,7.9c-5.6-0.3-9.4-3.3-12.2-8.1c-1.3-2.3-3.2-4.7-5.4-6.1c-8.1-5-16.4-9.6-24.7-14.4
		c-1.4-0.8-2.8-1.5-5.6-3c1.3,3.6,1.8,5.9,2.8,8c2.6,5.3-1.1,7.2-4.7,9.5c-3.8,2.4-6.9,2.5-9.7-1.3c-2.1-2.8-3.9-5.5-8.5-4.8
		c-3.9,0.5-5.1,2.4-6.3,5.4c-2.5,5.9-10.9,7.6-15,2.7c-1.2-1.5-1.3-4.4-1-6.6c0.8-7.7-4.1-11.8-11.2-8.9c-4.2,1.7-7.6,2.4-10.2-2.7
		C3.4,63.2,3.2,63,8.8,58.5c5.9-4.7,5-10.6-1.9-13.9c-2.1-1-3.9-2.6-5.8-3.9C1.1,39.4,1.1,38,1.1,36.6z M66.9,66.8
		c-0.3-0.1-2.3-1.7-3.3-1.2c-6.1,3.4-12.3,1.2-18.5,0.8c-9.3-0.6-17-7.5-18.4-16.4c-1.5-9.7,3.5-18.5,12.6-22.1
		c8.5-3.4,18.2-0.4,23.5,7.2c3.7,5.2,9.1,9.4,8.9,16.7c0,0.4,0.5,0.9,0.9,1.1c4.4,2.6,8.9,5.2,13.5,7.9c2.4-7.2,2.4-7.1-3.7-10.1
		c-1.8-0.9-4.2-2.3-4.6-3.9c-1.4-5.9-2.6-12.2,4.9-15.5c0.9-0.4,1.6-1.2,2.3-1.7c-3.3-8-3.5-8.2-10.2-5.2c-3.8,1.7-5.9,0.3-9.1-1.7
		c-4.7-2.9-6.3-6.2-4.7-11.4c0.4-1.2,0.2-2.7,0.2-4.3c-2.7-0.7-5.2-1.4-7.8-2.1c-2.9,5-3.4,10.5-11.2,11.6c-8.1,1.1-9-5.7-13.7-8.5
		c-2.2,1.4-4.5,2.8-6.6,4.2c1.3,5.6,4.9,9.5,0.3,15.8c-4.9,6.9-10.1,3-15.1,3.7C4,39.3,4,39.3,10.7,42.4c6.5,3,7.7,12.9,2.2,17.3
		c-5.9,4.7-5.9,4.7-0.8,11.2c5-0.7,9.1-5.3,15.7-0.3c6.6,5.1,2.6,10.8,4.2,15.7c7.7,2.3,7.6,2.3,10.8-4.5c0.7-1.6,2-3.8,3.2-4
		c5.7-0.8,12.2-3.2,15.6,4.5c1.2,2.7,3.2,3,5.8,1.2c2.2-1.6,4.2-2.5,2.6-5.9C68.6,74.5,68.1,71.1,66.9,66.8z M54.4,38.9
		c6.2,5.7,6.8,7.3,3.7,12.8c-1.5,2.6-3.5,5.7-6,6.8c-2,0.9-5.2-1-8-1.7c3.8,6.9,9.8,9.2,16.7,5.7c2.8-1.4,4.6-1,7,0.4
		c12.2,7.1,24.5,14,36.6,21.3c2.3,1.4,4.1,4.1,5.4,6.6c1.9,3.6,4.4,6.1,8.6,6.2c3.8,0.2,6.8-1,8.7-4.9c-5.4,1.2-7.3-0.7-11.1-11.2
		c1.1-0.6,2.5-1.3,3.8-2c-4.1-0.4-7.9,0.3-10.6-1.2c-12.7-6.9-25.2-14.2-37.6-21.7c-1.8-1.1-3.3-3.7-3.6-5.8
		C66.9,43,62,38.7,54.4,38.9z M38.5,50.9c0.5-0.3,1-0.6,1.5-0.8c3.4,1.7,6.8,3.5,11,5.6c1.9-3.4,3.8-6.7,5.7-10.1
		c-4-2.5-7.4-4.5-10.7-6.6c0.1-0.6,0.2-1.1,0.2-1.7c3.5-1.1,7-2.1,10.5-3.2c-5.5-4.5-12.3-5.2-18-2c-6.1,3.4-9.6,10.2-8.6,16.7
		c1,6.7,5.4,11.6,11.2,12.8C40.5,58.2,39.5,54.5,38.5,50.9z"/>
</g>
</svg>
